<svg width="789" height="174" viewBox="0 0 789 174" fill="none" xmlns="http://www.w3.org/2000/svg">
<path d="M18.9274 166V158.776H16.3474V157.6H22.8034V158.776H20.2234V166H18.9274ZM25.626 166.168C25.034 166.168 24.506 166.048 24.042 165.808C23.586 165.56 23.226 165.208 22.962 164.752C22.698 164.296 22.566 163.756 22.566 163.132V162.952C22.566 162.328 22.698 161.792 22.962 161.344C23.226 160.888 23.586 160.536 24.042 160.288C24.506 160.04 25.034 159.916 25.626 159.916C26.218 159.916 26.746 160.04 27.21 160.288C27.674 160.536 28.038 160.888 28.302 161.344C28.566 161.792 28.698 162.328 28.698 162.952V163.132C28.698 163.756 28.566 164.296 28.302 164.752C28.038 165.208 27.674 165.56 27.21 165.808C26.746 166.048 26.218 166.168 25.626 166.168ZM25.626 165.064C26.17 165.064 26.61 164.892 26.946 164.548C27.29 164.196 27.462 163.712 27.462 163.096V162.988C27.462 162.372 27.294 161.892 26.958 161.548C26.622 161.196 26.178 161.02 25.626 161.02C25.09 161.02 24.65 161.196 24.306 161.548C23.97 161.892 23.802 162.372 23.802 162.988V163.096C23.802 163.712 23.97 164.196 24.306 164.548C24.65 164.892 25.09 165.064 25.626 165.064ZM32.2341 166C31.8741 166 31.5861 165.892 31.3701 165.676C31.1621 165.46 31.0581 165.172 31.0581 164.812V161.128H29.4261V160.084H31.0581V158.128H32.2941V160.084H34.0581V161.128H32.2941V164.596C32.2941 164.836 32.4061 164.956 32.6301 164.956H33.8661V166H32.2341ZM37.3345 166.168C36.9105 166.168 36.5305 166.096 36.1945 165.952C35.8665 165.808 35.6025 165.596 35.4025 165.316C35.2105 165.036 35.1145 164.696 35.1145 164.296C35.1145 163.888 35.2105 163.552 35.4025 163.288C35.6025 163.016 35.8705 162.812 36.2065 162.676C36.5505 162.54 36.9385 162.472 37.3705 162.472H39.1705V162.088C39.1705 161.744 39.0665 161.468 38.8585 161.26C38.6505 161.052 38.3305 160.948 37.8985 160.948C37.4745 160.948 37.1505 161.048 36.9265 161.248C36.7025 161.448 36.5545 161.708 36.4825 162.028L35.3305 161.656C35.4265 161.336 35.5785 161.048 35.7865 160.792C36.0025 160.528 36.2865 160.316 36.6385 160.156C36.9905 159.996 37.4145 159.916 37.9105 159.916C38.6785 159.916 39.2825 160.112 39.7225 160.504C40.1625 160.896 40.3825 161.452 40.3825 162.172V164.608C40.3825 164.848 40.4945 164.968 40.7185 164.968H41.2225V166H40.2985C40.0185 166 39.7905 165.928 39.6145 165.784C39.4385 165.64 39.3505 165.444 39.3505 165.196V165.16H39.1705C39.1065 165.28 39.0105 165.42 38.8825 165.58C38.7545 165.74 38.5665 165.88 38.3185 166C38.0705 166.112 37.7425 166.168 37.3345 166.168ZM37.5145 165.148C38.0105 165.148 38.4105 165.008 38.7145 164.728C39.0185 164.44 39.1705 164.048 39.1705 163.552V163.432H37.4425C37.1145 163.432 36.8505 163.504 36.6505 163.648C36.4505 163.784 36.3505 163.988 36.3505 164.26C36.3505 164.532 36.4545 164.748 36.6625 164.908C36.8705 165.068 37.1545 165.148 37.5145 165.148ZM42.4243 166V157.6H43.6603V166H42.4243ZM48.5172 166V157.6H53.8092V158.776H49.8132V161.188H53.4732V162.364H49.8132V164.824H53.8692V166H48.5172ZM55.2563 166V160.084H56.4683V160.972H56.6603C56.7723 160.732 56.9723 160.508 57.2603 160.3C57.5483 160.092 57.9763 159.988 58.5443 159.988C58.9923 159.988 59.3883 160.088 59.7323 160.288C60.0843 160.488 60.3603 160.772 60.5603 161.14C60.7603 161.5 60.8603 161.936 60.8603 162.448V166H59.6243V162.544C59.6243 162.032 59.4963 161.656 59.2403 161.416C58.9843 161.168 58.6323 161.044 58.1843 161.044C57.6723 161.044 57.2603 161.212 56.9483 161.548C56.6443 161.884 56.4923 162.372 56.4923 163.012V166H55.2563ZM62.6391 166V160.084H63.8511V160.78H64.0431C64.1391 160.532 64.2911 160.352 64.4991 160.24C64.7151 160.12 64.9791 160.06 65.2911 160.06H65.9991V161.176H65.2431C64.8431 161.176 64.5151 161.288 64.2591 161.512C64.0031 161.728 63.8751 162.064 63.8751 162.52V166H62.6391ZM69.8408 166.168C69.2488 166.168 68.7208 166.048 68.2568 165.808C67.8008 165.56 67.4408 165.208 67.1768 164.752C66.9128 164.296 66.7808 163.756 66.7808 163.132V162.952C66.7808 162.328 66.9128 161.792 67.1768 161.344C67.4408 160.888 67.8008 160.536 68.2568 160.288C68.7208 160.04 69.2488 159.916 69.8408 159.916C70.4328 159.916 70.9608 160.04 71.4248 160.288C71.8888 160.536 72.2528 160.888 72.5168 161.344C72.7808 161.792 72.9128 162.328 72.9128 162.952V163.132C72.9128 163.756 72.7808 164.296 72.5168 164.752C72.2528 165.208 71.8888 165.56 71.4248 165.808C70.9608 166.048 70.4328 166.168 69.8408 166.168ZM69.8408 165.064C70.3848 165.064 70.8248 164.892 71.1608 164.548C71.5048 164.196 71.6768 163.712 71.6768 163.096V162.988C71.6768 162.372 71.5088 161.892 71.1728 161.548C70.8368 161.196 70.3928 161.02 69.8408 161.02C69.3048 161.02 68.8648 161.196 68.5208 161.548C68.1848 161.892 68.0168 162.372 68.0168 162.988V163.096C68.0168 163.712 68.1848 164.196 68.5208 164.548C68.8648 164.892 69.3048 165.064 69.8408 165.064ZM74.4516 166V157.6H75.6876V166H74.4516ZM77.5219 166V157.6H78.7579V166H77.5219ZM80.5922 166V160.084H81.8042V160.78H81.9962C82.1082 160.572 82.2882 160.388 82.5362 160.228C82.7842 160.068 83.1202 159.988 83.5442 159.988C83.9842 159.988 84.3362 160.08 84.6002 160.264C84.8722 160.44 85.0762 160.668 85.2122 160.948H85.4042C85.5402 160.676 85.7362 160.448 85.9922 160.264C86.2562 160.08 86.6282 159.988 87.1082 159.988C87.4922 159.988 87.8322 160.068 88.1282 160.228C88.4242 160.38 88.6602 160.612 88.8362 160.924C89.0122 161.228 89.1002 161.608 89.1002 162.064V166H87.8642V162.16C87.8642 161.8 87.7642 161.524 87.5642 161.332C87.3722 161.132 87.0962 161.032 86.7362 161.032C86.3522 161.032 86.0442 161.156 85.8122 161.404C85.5802 161.652 85.4642 162.008 85.4642 162.472V166H84.2282V162.16C84.2282 161.8 84.1282 161.524 83.9282 161.332C83.7362 161.132 83.4602 161.032 83.1002 161.032C82.7162 161.032 82.4082 161.156 82.1762 161.404C81.9442 161.652 81.8282 162.008 81.8282 162.472V166H80.5922ZM93.5933 166.168C92.9933 166.168 92.4693 166.044 92.0213 165.796C91.5733 165.54 91.2213 165.184 90.9653 164.728C90.7173 164.264 90.5933 163.728 90.5933 163.12V162.976C90.5933 162.36 90.7173 161.824 90.9653 161.368C91.2133 160.904 91.5573 160.548 91.9973 160.3C92.4453 160.044 92.9613 159.916 93.5453 159.916C94.1133 159.916 94.6093 160.044 95.0333 160.3C95.4653 160.548 95.8013 160.896 96.0413 161.344C96.2813 161.792 96.4013 162.316 96.4013 162.916V163.384H91.8533C91.8693 163.904 92.0413 164.32 92.3693 164.632C92.7053 164.936 93.1213 165.088 93.6173 165.088C94.0813 165.088 94.4293 164.984 94.6613 164.776C94.9013 164.568 95.0853 164.328 95.2133 164.056L96.2333 164.584C96.1213 164.808 95.9573 165.044 95.7413 165.292C95.5333 165.54 95.2573 165.748 94.9133 165.916C94.5693 166.084 94.1293 166.168 93.5933 166.168ZM91.8653 162.436H95.1413C95.1093 161.988 94.9493 161.64 94.6613 161.392C94.3733 161.136 93.9973 161.008 93.5333 161.008C93.0693 161.008 92.6893 161.136 92.3933 161.392C92.1053 161.64 91.9293 161.988 91.8653 162.436ZM97.8891 166V160.084H99.1011V160.972H99.2931C99.4051 160.732 99.6051 160.508 99.8931 160.3C100.181 160.092 100.609 159.988 101.177 159.988C101.625 159.988 102.021 160.088 102.365 160.288C102.717 160.488 102.993 160.772 103.193 161.14C103.393 161.5 103.493 161.936 103.493 162.448V166H102.257V162.544C102.257 162.032 102.129 161.656 101.873 161.416C101.617 161.168 101.265 161.044 100.817 161.044C100.305 161.044 99.8931 161.212 99.5811 161.548C99.2771 161.884 99.1251 162.372 99.1251 163.012V166H97.8891ZM107.328 166C106.968 166 106.68 165.892 106.464 165.676C106.256 165.46 106.152 165.172 106.152 164.812V161.128H104.52V160.084H106.152V158.128H107.388V160.084H109.152V161.128H107.388V164.596C107.388 164.836 107.5 164.956 107.724 164.956H108.96V166H107.328ZM113.028 166.168C112.276 166.168 111.652 166 111.156 165.664C110.66 165.328 110.356 164.82 110.244 164.14L111.396 163.864C111.46 164.192 111.568 164.452 111.72 164.644C111.872 164.836 112.06 164.972 112.284 165.052C112.516 165.132 112.764 165.172 113.028 165.172C113.42 165.172 113.72 165.096 113.928 164.944C114.144 164.792 114.252 164.596 114.252 164.356C114.252 164.116 114.152 163.94 113.952 163.828C113.752 163.716 113.456 163.624 113.064 163.552L112.656 163.48C112.256 163.408 111.892 163.304 111.564 163.168C111.236 163.032 110.976 162.844 110.784 162.604C110.592 162.364 110.496 162.056 110.496 161.68C110.496 161.12 110.704 160.688 111.12 160.384C111.536 160.072 112.088 159.916 112.776 159.916C113.44 159.916 113.984 160.068 114.408 160.372C114.84 160.668 115.12 161.072 115.248 161.584L114.096 161.908C114.024 161.548 113.872 161.296 113.64 161.152C113.408 161 113.12 160.924 112.776 160.924C112.44 160.924 112.176 160.988 111.984 161.116C111.792 161.236 111.696 161.408 111.696 161.632C111.696 161.872 111.788 162.048 111.972 162.16C112.164 162.272 112.42 162.356 112.74 162.412L113.16 162.484C113.584 162.556 113.972 162.656 114.324 162.784C114.676 162.912 114.952 163.096 115.152 163.336C115.36 163.576 115.464 163.896 115.464 164.296C115.464 164.888 115.244 165.348 114.804 165.676C114.364 166.004 113.772 166.168 113.028 166.168Z" fill="#5C5C5C"/>
<path d="M30.6797 145V131.854H30.3437L27.9287 136.81H25.5977L28.8527 130.3H32.8847V145H30.6797ZM41.1707 145.294C39.4627 145.294 38.0977 144.811 37.0757 143.845C36.0677 142.865 35.5637 141.395 35.5637 139.435V135.865C35.5637 133.947 36.0677 132.491 37.0757 131.497C38.0977 130.503 39.4627 130.006 41.1707 130.006C42.8927 130.006 44.2577 130.503 45.2657 131.497C46.2877 132.491 46.7987 133.947 46.7987 135.865V139.435C46.7987 141.395 46.2877 142.865 45.2657 143.845C44.2577 144.811 42.8927 145.294 41.1707 145.294ZM41.1707 143.32C42.3327 143.32 43.1937 142.991 43.7537 142.333C44.3137 141.661 44.5937 140.723 44.5937 139.519V135.739C44.5937 134.535 44.2927 133.611 43.6907 132.967C43.0887 132.309 42.2487 131.98 41.1707 131.98C40.0787 131.98 39.2387 132.316 38.6507 132.988C38.0627 133.646 37.7687 134.563 37.7687 135.739V139.519C37.7687 140.751 38.0487 141.696 38.6087 142.354C39.1827 142.998 40.0367 143.32 41.1707 143.32ZM54.7058 145.294C52.9978 145.294 51.6328 144.811 50.6108 143.845C49.6028 142.865 49.0988 141.395 49.0988 139.435V135.865C49.0988 133.947 49.6028 132.491 50.6108 131.497C51.6328 130.503 52.9978 130.006 54.7058 130.006C56.4278 130.006 57.7928 130.503 58.8008 131.497C59.8228 132.491 60.3338 133.947 60.3338 135.865V139.435C60.3338 141.395 59.8228 142.865 58.8008 143.845C57.7928 144.811 56.4278 145.294 54.7058 145.294ZM54.7058 143.32C55.8678 143.32 56.7288 142.991 57.2888 142.333C57.8488 141.661 58.1288 140.723 58.1288 139.519V135.739C58.1288 134.535 57.8278 133.611 57.2258 132.967C56.6238 132.309 55.7838 131.98 54.7058 131.98C53.6138 131.98 52.7738 132.316 52.1858 132.988C51.5978 133.646 51.3038 134.563 51.3038 135.739V139.519C51.3038 140.751 51.5838 141.696 52.1438 142.354C52.7178 142.998 53.5718 143.32 54.7058 143.32ZM62.8089 147.856V146.617H63.5229C64.0969 146.617 64.3839 146.33 64.3839 145.756V145.084H64.0689C63.5789 145.084 63.1729 144.937 62.8509 144.643C62.5289 144.349 62.3679 143.978 62.3679 143.53C62.3679 143.04 62.5289 142.648 62.8509 142.354C63.1729 142.046 63.5789 141.892 64.0689 141.892C64.5589 141.892 64.9579 142.053 65.2659 142.375C65.5879 142.683 65.7489 143.089 65.7489 143.593V145.777C65.7489 147.163 65.0559 147.856 63.6699 147.856H62.8089ZM73.409 145.294C71.701 145.294 70.336 144.811 69.314 143.845C68.306 142.865 67.802 141.395 67.802 139.435V135.865C67.802 133.947 68.306 132.491 69.314 131.497C70.336 130.503 71.701 130.006 73.409 130.006C75.131 130.006 76.496 130.503 77.504 131.497C78.526 132.491 79.037 133.947 79.037 135.865V139.435C79.037 141.395 78.526 142.865 77.504 143.845C76.496 144.811 75.131 145.294 73.409 145.294ZM73.409 143.32C74.571 143.32 75.432 142.991 75.992 142.333C76.552 141.661 76.832 140.723 76.832 139.519V135.739C76.832 134.535 76.531 133.611 75.929 132.967C75.327 132.309 74.487 131.98 73.409 131.98C72.317 131.98 71.477 132.316 70.889 132.988C70.301 133.646 70.007 134.563 70.007 135.739V139.519C70.007 140.751 70.287 141.696 70.847 142.354C71.421 142.998 72.275 143.32 73.409 143.32ZM86.9441 145.294C85.2361 145.294 83.8711 144.811 82.8491 143.845C81.8411 142.865 81.3371 141.395 81.3371 139.435V135.865C81.3371 133.947 81.8411 132.491 82.8491 131.497C83.8711 130.503 85.2361 130.006 86.9441 130.006C88.6661 130.006 90.0311 130.503 91.0391 131.497C92.0611 132.491 92.5721 133.947 92.5721 135.865V139.435C92.5721 141.395 92.0611 142.865 91.0391 143.845C90.0311 144.811 88.6661 145.294 86.9441 145.294ZM86.9441 143.32C88.1061 143.32 88.9671 142.991 89.5271 142.333C90.0871 141.661 90.3671 140.723 90.3671 139.519V135.739C90.3671 134.535 90.0661 133.611 89.4641 132.967C88.8621 132.309 88.0221 131.98 86.9441 131.98C85.8521 131.98 85.0121 132.316 84.4241 132.988C83.8361 133.646 83.5421 134.563 83.5421 135.739V139.519C83.5421 140.751 83.8221 141.696 84.3821 142.354C84.9561 142.998 85.8101 143.32 86.9441 143.32ZM100.479 145.294C98.7713 145.294 97.4063 144.811 96.3843 143.845C95.3763 142.865 94.8723 141.395 94.8723 139.435V135.865C94.8723 133.947 95.3763 132.491 96.3843 131.497C97.4063 130.503 98.7713 130.006 100.479 130.006C102.201 130.006 103.566 130.503 104.574 131.497C105.596 132.491 106.107 133.947 106.107 135.865V139.435C106.107 141.395 105.596 142.865 104.574 143.845C103.566 144.811 102.201 145.294 100.479 145.294ZM100.479 143.32C101.641 143.32 102.502 142.991 103.062 142.333C103.622 141.661 103.902 140.723 103.902 139.519V135.739C103.902 134.535 103.601 133.611 102.999 132.967C102.397 132.309 101.557 131.98 100.479 131.98C99.3873 131.98 98.5473 132.316 97.9593 132.988C97.3713 133.646 97.0773 134.563 97.0773 135.739V139.519C97.0773 140.751 97.3573 141.696 97.9173 142.354C98.4913 142.998 99.3453 143.32 100.479 143.32Z" fill="#5C5C5C"/>
<path d="M168.932 166.168C167.908 166.168 167.096 165.88 166.496 165.304C165.896 164.72 165.596 163.88 165.596 162.784V160.816C165.596 159.72 165.896 158.884 166.496 158.308C167.096 157.724 167.908 157.432 168.932 157.432C169.94 157.432 170.716 157.712 171.26 158.272C171.812 158.832 172.088 159.596 172.088 160.564V160.636H170.804V160.528C170.804 159.96 170.648 159.496 170.336 159.136C170.032 158.776 169.564 158.596 168.932 158.596C168.292 158.596 167.792 158.792 167.432 159.184C167.072 159.568 166.892 160.104 166.892 160.792V162.808C166.892 163.488 167.072 164.024 167.432 164.416C167.792 164.808 168.292 165.004 168.932 165.004C169.564 165.004 170.032 164.824 170.336 164.464C170.648 164.096 170.804 163.632 170.804 163.072V162.868H172.088V163.036C172.088 164.004 171.812 164.768 171.26 165.328C170.716 165.888 169.94 166.168 168.932 166.168ZM176.331 166.168C175.739 166.168 175.211 166.048 174.747 165.808C174.291 165.56 173.931 165.208 173.667 164.752C173.403 164.296 173.271 163.756 173.271 163.132V162.952C173.271 162.328 173.403 161.792 173.667 161.344C173.931 160.888 174.291 160.536 174.747 160.288C175.211 160.04 175.739 159.916 176.331 159.916C176.923 159.916 177.451 160.04 177.915 160.288C178.379 160.536 178.743 160.888 179.007 161.344C179.271 161.792 179.403 162.328 179.403 162.952V163.132C179.403 163.756 179.271 164.296 179.007 164.752C178.743 165.208 178.379 165.56 177.915 165.808C177.451 166.048 176.923 166.168 176.331 166.168ZM176.331 165.064C176.875 165.064 177.315 164.892 177.651 164.548C177.995 164.196 178.167 163.712 178.167 163.096V162.988C178.167 162.372 177.999 161.892 177.663 161.548C177.327 161.196 176.883 161.02 176.331 161.02C175.795 161.02 175.355 161.196 175.011 161.548C174.675 161.892 174.507 162.372 174.507 162.988V163.096C174.507 163.712 174.675 164.196 175.011 164.548C175.355 164.892 175.795 165.064 176.331 165.064ZM180.942 166V160.084H182.154V160.78H182.346C182.458 160.572 182.638 160.388 182.886 160.228C183.134 160.068 183.47 159.988 183.894 159.988C184.334 159.988 184.686 160.08 184.95 160.264C185.222 160.44 185.426 160.668 185.562 160.948H185.754C185.89 160.676 186.086 160.448 186.342 160.264C186.606 160.08 186.978 159.988 187.458 159.988C187.842 159.988 188.182 160.068 188.478 160.228C188.774 160.38 189.01 160.612 189.186 160.924C189.362 161.228 189.45 161.608 189.45 162.064V166H188.214V162.16C188.214 161.8 188.114 161.524 187.914 161.332C187.722 161.132 187.446 161.032 187.086 161.032C186.702 161.032 186.394 161.156 186.162 161.404C185.93 161.652 185.814 162.008 185.814 162.472V166H184.578V162.16C184.578 161.8 184.478 161.524 184.278 161.332C184.086 161.132 183.81 161.032 183.45 161.032C183.066 161.032 182.758 161.156 182.526 161.404C182.294 161.652 182.178 162.008 182.178 162.472V166H180.942ZM191.231 168.4V160.084H192.443V160.936H192.635C192.787 160.672 193.015 160.436 193.319 160.228C193.631 160.02 194.075 159.916 194.651 159.916C195.147 159.916 195.599 160.036 196.007 160.276C196.423 160.516 196.755 160.864 197.003 161.32C197.259 161.768 197.387 162.312 197.387 162.952V163.132C197.387 163.772 197.263 164.32 197.015 164.776C196.767 165.224 196.435 165.568 196.019 165.808C195.603 166.048 195.147 166.168 194.651 166.168C194.267 166.168 193.943 166.12 193.679 166.024C193.415 165.928 193.203 165.808 193.043 165.664C192.883 165.512 192.755 165.356 192.659 165.196H192.467V168.4H191.231ZM194.291 165.088C194.835 165.088 195.279 164.916 195.623 164.572C195.967 164.228 196.139 163.736 196.139 163.096V162.988C196.139 162.356 195.963 161.868 195.611 161.524C195.267 161.18 194.827 161.008 194.291 161.008C193.763 161.008 193.323 161.18 192.971 161.524C192.627 161.868 192.455 162.356 192.455 162.988V163.096C192.455 163.736 192.627 164.228 192.971 164.572C193.323 164.916 193.763 165.088 194.291 165.088ZM198.918 166V157.6H200.154V166H198.918ZM204.701 166.168C204.101 166.168 203.577 166.044 203.129 165.796C202.681 165.54 202.329 165.184 202.073 164.728C201.825 164.264 201.701 163.728 201.701 163.12V162.976C201.701 162.36 201.825 161.824 202.073 161.368C202.321 160.904 202.665 160.548 203.105 160.3C203.553 160.044 204.069 159.916 204.653 159.916C205.221 159.916 205.717 160.044 206.141 160.3C206.573 160.548 206.909 160.896 207.149 161.344C207.389 161.792 207.509 162.316 207.509 162.916V163.384H202.961C202.977 163.904 203.149 164.32 203.477 164.632C203.813 164.936 204.229 165.088 204.725 165.088C205.189 165.088 205.537 164.984 205.769 164.776C206.009 164.568 206.193 164.328 206.321 164.056L207.341 164.584C207.229 164.808 207.065 165.044 206.849 165.292C206.641 165.54 206.365 165.748 206.021 165.916C205.677 166.084 205.237 166.168 204.701 166.168ZM202.973 162.436H206.249C206.217 161.988 206.057 161.64 205.769 161.392C205.481 161.136 205.105 161.008 204.641 161.008C204.177 161.008 203.797 161.136 203.501 161.392C203.213 161.64 203.037 161.988 202.973 162.436ZM210.994 166C210.634 166 210.346 165.892 210.13 165.676C209.922 165.46 209.818 165.172 209.818 164.812V161.128H208.186V160.084H209.818V158.128H211.054V160.084H212.818V161.128H211.054V164.596C211.054 164.836 211.166 164.956 211.39 164.956H212.626V166H210.994ZM214.27 166V160.084H215.506V166H214.27ZM214.894 159.28C214.654 159.28 214.45 159.204 214.282 159.052C214.122 158.892 214.042 158.688 214.042 158.44C214.042 158.192 214.122 157.992 214.282 157.84C214.45 157.68 214.654 157.6 214.894 157.6C215.142 157.6 215.346 157.68 215.506 157.84C215.666 157.992 215.746 158.192 215.746 158.44C215.746 158.688 215.666 158.892 215.506 159.052C215.346 159.204 215.142 159.28 214.894 159.28ZM220.112 166.168C219.52 166.168 218.992 166.048 218.528 165.808C218.072 165.56 217.712 165.208 217.448 164.752C217.184 164.296 217.052 163.756 217.052 163.132V162.952C217.052 162.328 217.184 161.792 217.448 161.344C217.712 160.888 218.072 160.536 218.528 160.288C218.992 160.04 219.52 159.916 220.112 159.916C220.704 159.916 221.232 160.04 221.696 160.288C222.16 160.536 222.524 160.888 222.788 161.344C223.052 161.792 223.184 162.328 223.184 162.952V163.132C223.184 163.756 223.052 164.296 222.788 164.752C222.524 165.208 222.16 165.56 221.696 165.808C221.232 166.048 220.704 166.168 220.112 166.168ZM220.112 165.064C220.656 165.064 221.096 164.892 221.432 164.548C221.776 164.196 221.948 163.712 221.948 163.096V162.988C221.948 162.372 221.78 161.892 221.444 161.548C221.108 161.196 220.664 161.02 220.112 161.02C219.576 161.02 219.136 161.196 218.792 161.548C218.456 161.892 218.288 162.372 218.288 162.988V163.096C218.288 163.712 218.456 164.196 218.792 164.548C219.136 164.892 219.576 165.064 220.112 165.064ZM224.723 166V160.084H225.935V160.972H226.127C226.239 160.732 226.439 160.508 226.727 160.3C227.015 160.092 227.443 159.988 228.011 159.988C228.459 159.988 228.855 160.088 229.199 160.288C229.551 160.488 229.827 160.772 230.027 161.14C230.227 161.5 230.327 161.936 230.327 162.448V166H229.091V162.544C229.091 162.032 228.963 161.656 228.707 161.416C228.451 161.168 228.099 161.044 227.651 161.044C227.139 161.044 226.727 161.212 226.415 161.548C226.111 161.884 225.959 162.372 225.959 163.012V166H224.723Z" fill="#5C5C5C"/>
<path d="M168.251 145.294C167.187 145.294 166.249 145.091 165.437 144.685C164.625 144.265 163.995 143.684 163.547 142.942C163.099 142.2 162.875 141.339 162.875 140.359V135.277C162.875 134.129 163.099 133.163 163.547 132.379C164.009 131.595 164.653 131.007 165.479 130.615C166.305 130.209 167.264 130.006 168.356 130.006C169.434 130.006 170.365 130.195 171.149 130.573C171.933 130.937 172.535 131.462 172.955 132.148C173.375 132.82 173.585 133.611 173.585 134.521H171.359C171.359 133.793 171.114 133.191 170.624 132.715C170.148 132.225 169.392 131.98 168.356 131.98C167.306 131.98 166.494 132.26 165.92 132.82C165.36 133.366 165.08 134.129 165.08 135.109V136.873H165.416C165.654 136.537 166.039 136.215 166.571 135.907C167.117 135.599 167.887 135.445 168.881 135.445C169.749 135.445 170.547 135.634 171.275 136.012C172.003 136.39 172.584 136.929 173.018 137.629C173.466 138.329 173.69 139.176 173.69 140.17V140.422C173.69 141.388 173.459 142.242 172.997 142.984C172.535 143.712 171.891 144.279 171.065 144.685C170.253 145.091 169.315 145.294 168.251 145.294ZM168.272 143.32C169.252 143.32 170.029 143.054 170.603 142.522C171.191 141.99 171.485 141.276 171.485 140.38V140.212C171.485 139.61 171.352 139.092 171.086 138.658C170.82 138.21 170.442 137.86 169.952 137.608C169.476 137.356 168.916 137.23 168.272 137.23C167.642 137.23 167.082 137.356 166.592 137.608C166.116 137.86 165.745 138.21 165.479 138.658C165.213 139.092 165.08 139.61 165.08 140.212V140.38C165.08 141.276 165.367 141.99 165.941 142.522C166.529 143.054 167.306 143.32 168.272 143.32ZM180.982 145.294C179.876 145.294 178.917 145.091 178.105 144.685C177.293 144.279 176.663 143.705 176.215 142.963C175.781 142.221 175.564 141.36 175.564 140.38V140.149H177.811V140.359C177.811 141.255 178.084 141.976 178.63 142.522C179.19 143.054 179.967 143.32 180.961 143.32C181.983 143.32 182.774 143.04 183.334 142.48C183.894 141.92 184.174 141.164 184.174 140.212V140.023C184.174 139.113 183.894 138.385 183.334 137.839C182.788 137.293 182.088 137.02 181.234 137.02C180.758 137.02 180.359 137.097 180.037 137.251C179.729 137.391 179.477 137.566 179.281 137.776C179.099 137.986 178.945 138.189 178.819 138.385H176.026V130.3H185.875V132.295H178.231V136.621H178.567C178.707 136.383 178.903 136.159 179.155 135.949C179.421 135.725 179.764 135.543 180.184 135.403C180.604 135.263 181.108 135.193 181.696 135.193C182.564 135.193 183.348 135.382 184.048 135.76C184.762 136.124 185.329 136.67 185.749 137.398C186.169 138.112 186.379 138.98 186.379 140.002V140.233C186.379 141.255 186.162 142.144 185.728 142.9C185.294 143.656 184.671 144.244 183.859 144.664C183.061 145.084 182.102 145.294 180.982 145.294ZM188.828 147.856V146.617H189.542C190.116 146.617 190.403 146.33 190.403 145.756V145.084H190.088C189.598 145.084 189.192 144.937 188.87 144.643C188.548 144.349 188.387 143.978 188.387 143.53C188.387 143.04 188.548 142.648 188.87 142.354C189.192 142.046 189.598 141.892 190.088 141.892C190.578 141.892 190.977 142.053 191.285 142.375C191.607 142.683 191.768 143.089 191.768 143.593V145.777C191.768 147.163 191.075 147.856 189.689 147.856H188.828ZM199.429 145.294C197.721 145.294 196.356 144.811 195.334 143.845C194.326 142.865 193.822 141.395 193.822 139.435V135.865C193.822 133.947 194.326 132.491 195.334 131.497C196.356 130.503 197.721 130.006 199.429 130.006C201.151 130.006 202.516 130.503 203.524 131.497C204.546 132.491 205.057 133.947 205.057 135.865V139.435C205.057 141.395 204.546 142.865 203.524 143.845C202.516 144.811 201.151 145.294 199.429 145.294ZM199.429 143.32C200.591 143.32 201.452 142.991 202.012 142.333C202.572 141.661 202.852 140.723 202.852 139.519V135.739C202.852 134.535 202.551 133.611 201.949 132.967C201.347 132.309 200.507 131.98 199.429 131.98C198.337 131.98 197.497 132.316 196.909 132.988C196.321 133.646 196.027 134.563 196.027 135.739V139.519C196.027 140.751 196.307 141.696 196.867 142.354C197.441 142.998 198.295 143.32 199.429 143.32ZM212.964 145.294C211.256 145.294 209.891 144.811 208.869 143.845C207.861 142.865 207.357 141.395 207.357 139.435V135.865C207.357 133.947 207.861 132.491 208.869 131.497C209.891 130.503 211.256 130.006 212.964 130.006C214.686 130.006 216.051 130.503 217.059 131.497C218.081 132.491 218.592 133.947 218.592 135.865V139.435C218.592 141.395 218.081 142.865 217.059 143.845C216.051 144.811 214.686 145.294 212.964 145.294ZM212.964 143.32C214.126 143.32 214.987 142.991 215.547 142.333C216.107 141.661 216.387 140.723 216.387 139.519V135.739C216.387 134.535 216.086 133.611 215.484 132.967C214.882 132.309 214.042 131.98 212.964 131.98C211.872 131.98 211.032 132.316 210.444 132.988C209.856 133.646 209.562 134.563 209.562 135.739V139.519C209.562 140.751 209.842 141.696 210.402 142.354C210.976 142.998 211.83 143.32 212.964 143.32ZM226.499 145.294C224.791 145.294 223.426 144.811 222.404 143.845C221.396 142.865 220.892 141.395 220.892 139.435V135.865C220.892 133.947 221.396 132.491 222.404 131.497C223.426 130.503 224.791 130.006 226.499 130.006C228.221 130.006 229.586 130.503 230.594 131.497C231.616 132.491 232.127 133.947 232.127 135.865V139.435C232.127 141.395 231.616 142.865 230.594 143.845C229.586 144.811 228.221 145.294 226.499 145.294ZM226.499 143.32C227.661 143.32 228.522 142.991 229.082 142.333C229.642 141.661 229.922 140.723 229.922 139.519V135.739C229.922 134.535 229.621 133.611 229.019 132.967C228.417 132.309 227.577 131.98 226.499 131.98C225.407 131.98 224.567 132.316 223.979 132.988C223.391 133.646 223.097 134.563 223.097 135.739V139.519C223.097 140.751 223.377 141.696 223.937 142.354C224.511 142.998 225.365 143.32 226.499 143.32Z" fill="#5C5C5C"/>
<path d="M682.28 166.168C681.256 166.168 680.444 165.88 679.844 165.304C679.244 164.72 678.944 163.88 678.944 162.784V160.816C678.944 159.72 679.244 158.884 679.844 158.308C680.444 157.724 681.256 157.432 682.28 157.432C683.288 157.432 684.064 157.712 684.608 158.272C685.16 158.832 685.436 159.596 685.436 160.564V160.636H684.152V160.528C684.152 159.96 683.996 159.496 683.684 159.136C683.38 158.776 682.912 158.596 682.28 158.596C681.64 158.596 681.14 158.792 680.78 159.184C680.42 159.568 680.24 160.104 680.24 160.792V162.808C680.24 163.488 680.42 164.024 680.78 164.416C681.14 164.808 681.64 165.004 682.28 165.004C682.912 165.004 683.38 164.824 683.684 164.464C683.996 164.096 684.152 163.632 684.152 163.072V162.868H685.436V163.036C685.436 164.004 685.16 164.768 684.608 165.328C684.064 165.888 683.288 166.168 682.28 166.168ZM688.743 166.168C688.319 166.168 687.939 166.096 687.603 165.952C687.275 165.808 687.011 165.596 686.811 165.316C686.619 165.036 686.523 164.696 686.523 164.296C686.523 163.888 686.619 163.552 686.811 163.288C687.011 163.016 687.279 162.812 687.615 162.676C687.959 162.54 688.347 162.472 688.779 162.472H690.579V162.088C690.579 161.744 690.475 161.468 690.267 161.26C690.059 161.052 689.739 160.948 689.307 160.948C688.883 160.948 688.559 161.048 688.335 161.248C688.111 161.448 687.963 161.708 687.891 162.028L686.739 161.656C686.835 161.336 686.987 161.048 687.195 160.792C687.411 160.528 687.695 160.316 688.047 160.156C688.399 159.996 688.823 159.916 689.319 159.916C690.087 159.916 690.691 160.112 691.131 160.504C691.571 160.896 691.791 161.452 691.791 162.172V164.608C691.791 164.848 691.903 164.968 692.127 164.968H692.631V166H691.707C691.427 166 691.199 165.928 691.023 165.784C690.847 165.64 690.759 165.444 690.759 165.196V165.16H690.579C690.515 165.28 690.419 165.42 690.291 165.58C690.163 165.74 689.975 165.88 689.727 166C689.479 166.112 689.151 166.168 688.743 166.168ZM688.923 165.148C689.419 165.148 689.819 165.008 690.123 164.728C690.427 164.44 690.579 164.048 690.579 163.552V163.432H688.851C688.523 163.432 688.259 163.504 688.059 163.648C687.859 163.784 687.759 163.988 687.759 164.26C687.759 164.532 687.863 164.748 688.071 164.908C688.279 165.068 688.563 165.148 688.923 165.148ZM693.832 166V160.084H695.044V160.972H695.236C695.348 160.732 695.548 160.508 695.836 160.3C696.124 160.092 696.552 159.988 697.12 159.988C697.568 159.988 697.964 160.088 698.308 160.288C698.66 160.488 698.936 160.772 699.136 161.14C699.336 161.5 699.436 161.936 699.436 162.448V166H698.2V162.544C698.2 162.032 698.072 161.656 697.816 161.416C697.56 161.168 697.208 161.044 696.76 161.044C696.248 161.044 695.836 161.212 695.524 161.548C695.22 161.884 695.068 162.372 695.068 163.012V166H693.832ZM703.663 166.168C703.175 166.168 702.723 166.048 702.307 165.808C701.891 165.568 701.555 165.224 701.299 164.776C701.051 164.32 700.927 163.772 700.927 163.132V162.952C700.927 162.32 701.051 161.776 701.299 161.32C701.547 160.864 701.879 160.516 702.295 160.276C702.711 160.036 703.167 159.916 703.663 159.916C704.047 159.916 704.367 159.964 704.623 160.06C704.887 160.156 705.103 160.28 705.271 160.432C705.439 160.576 705.567 160.728 705.655 160.888H705.847V157.6H707.083V166H705.871V165.16H705.679C705.527 165.416 705.295 165.648 704.983 165.856C704.679 166.064 704.239 166.168 703.663 166.168ZM704.011 165.088C704.547 165.088 704.987 164.916 705.331 164.572C705.683 164.228 705.859 163.736 705.859 163.096V162.988C705.859 162.356 705.687 161.868 705.343 161.524C704.999 161.18 704.555 161.008 704.011 161.008C703.483 161.008 703.043 161.18 702.691 161.524C702.347 161.868 702.175 162.356 702.175 162.988V163.096C702.175 163.736 702.347 164.228 702.691 164.572C703.043 164.916 703.483 165.088 704.011 165.088ZM708.903 166V160.084H710.139V166H708.903ZM709.527 159.28C709.287 159.28 709.083 159.204 708.915 159.052C708.755 158.892 708.675 158.688 708.675 158.44C708.675 158.192 708.755 157.992 708.915 157.84C709.083 157.68 709.287 157.6 709.527 157.6C709.775 157.6 709.979 157.68 710.139 157.84C710.299 157.992 710.379 158.192 710.379 158.44C710.379 158.688 710.299 158.892 710.139 159.052C709.979 159.204 709.775 159.28 709.527 159.28ZM713.809 166.168C713.385 166.168 713.005 166.096 712.669 165.952C712.341 165.808 712.077 165.596 711.877 165.316C711.685 165.036 711.589 164.696 711.589 164.296C711.589 163.888 711.685 163.552 711.877 163.288C712.077 163.016 712.345 162.812 712.681 162.676C713.025 162.54 713.413 162.472 713.845 162.472H715.645V162.088C715.645 161.744 715.541 161.468 715.333 161.26C715.125 161.052 714.805 160.948 714.373 160.948C713.949 160.948 713.625 161.048 713.401 161.248C713.177 161.448 713.029 161.708 712.957 162.028L711.805 161.656C711.901 161.336 712.053 161.048 712.261 160.792C712.477 160.528 712.761 160.316 713.113 160.156C713.465 159.996 713.889 159.916 714.385 159.916C715.153 159.916 715.757 160.112 716.197 160.504C716.637 160.896 716.857 161.452 716.857 162.172V164.608C716.857 164.848 716.969 164.968 717.193 164.968H717.697V166H716.773C716.493 166 716.265 165.928 716.089 165.784C715.913 165.64 715.825 165.444 715.825 165.196V165.16H715.645C715.581 165.28 715.485 165.42 715.357 165.58C715.229 165.74 715.041 165.88 714.793 166C714.545 166.112 714.217 166.168 713.809 166.168ZM713.989 165.148C714.485 165.148 714.885 165.008 715.189 164.728C715.493 164.44 715.645 164.048 715.645 163.552V163.432H713.917C713.589 163.432 713.325 163.504 713.125 163.648C712.925 163.784 712.825 163.988 712.825 164.26C712.825 164.532 712.929 164.748 713.137 164.908C713.345 165.068 713.629 165.148 713.989 165.148ZM720.709 166C720.349 166 720.061 165.892 719.845 165.676C719.637 165.46 719.533 165.172 719.533 164.812V161.128H717.901V160.084H719.533V158.128H720.769V160.084H722.533V161.128H720.769V164.596C720.769 164.836 720.881 164.956 721.105 164.956H722.341V166H720.709ZM726.486 166.168C725.886 166.168 725.362 166.044 724.914 165.796C724.466 165.54 724.114 165.184 723.858 164.728C723.61 164.264 723.486 163.728 723.486 163.12V162.976C723.486 162.36 723.61 161.824 723.858 161.368C724.106 160.904 724.45 160.548 724.89 160.3C725.338 160.044 725.854 159.916 726.438 159.916C727.006 159.916 727.502 160.044 727.926 160.3C728.358 160.548 728.694 160.896 728.934 161.344C729.174 161.792 729.294 162.316 729.294 162.916V163.384H724.746C724.762 163.904 724.934 164.32 725.262 164.632C725.598 164.936 726.014 165.088 726.51 165.088C726.974 165.088 727.322 164.984 727.554 164.776C727.794 164.568 727.978 164.328 728.106 164.056L729.126 164.584C729.014 164.808 728.85 165.044 728.634 165.292C728.426 165.54 728.15 165.748 727.806 165.916C727.462 166.084 727.022 166.168 726.486 166.168ZM724.758 162.436H728.034C728.002 161.988 727.842 161.64 727.554 161.392C727.266 161.136 726.89 161.008 726.426 161.008C725.962 161.008 725.582 161.136 725.286 161.392C724.998 161.64 724.822 161.988 724.758 162.436ZM733.206 166.168C732.454 166.168 731.83 166 731.334 165.664C730.838 165.328 730.534 164.82 730.422 164.14L731.574 163.864C731.638 164.192 731.746 164.452 731.898 164.644C732.05 164.836 732.238 164.972 732.462 165.052C732.694 165.132 732.942 165.172 733.206 165.172C733.598 165.172 733.898 165.096 734.106 164.944C734.322 164.792 734.43 164.596 734.43 164.356C734.43 164.116 734.33 163.94 734.13 163.828C733.93 163.716 733.634 163.624 733.242 163.552L732.834 163.48C732.434 163.408 732.07 163.304 731.742 163.168C731.414 163.032 731.154 162.844 730.962 162.604C730.77 162.364 730.674 162.056 730.674 161.68C730.674 161.12 730.882 160.688 731.298 160.384C731.714 160.072 732.266 159.916 732.954 159.916C733.618 159.916 734.162 160.068 734.586 160.372C735.018 160.668 735.298 161.072 735.426 161.584L734.274 161.908C734.202 161.548 734.05 161.296 733.818 161.152C733.586 161 733.298 160.924 732.954 160.924C732.618 160.924 732.354 160.988 732.162 161.116C731.97 161.236 731.874 161.408 731.874 161.632C731.874 161.872 731.966 162.048 732.15 162.16C732.342 162.272 732.598 162.356 732.918 162.412L733.338 162.484C733.762 162.556 734.15 162.656 734.502 162.784C734.854 162.912 735.13 163.096 735.33 163.336C735.538 163.576 735.642 163.896 735.642 164.296C735.642 164.888 735.422 165.348 734.982 165.676C734.542 166.004 733.95 166.168 733.206 166.168ZM740.109 166V157.6H741.405V161.2H744.933V157.6H746.229V166H744.933V162.376H741.405V166H740.109ZM748.02 166V160.084H749.256V166H748.02ZM748.644 159.28C748.404 159.28 748.2 159.204 748.032 159.052C747.872 158.892 747.792 158.688 747.792 158.44C747.792 158.192 747.872 157.992 748.032 157.84C748.2 157.68 748.404 157.6 748.644 157.6C748.892 157.6 749.096 157.68 749.256 157.84C749.416 157.992 749.496 158.192 749.496 158.44C749.496 158.688 749.416 158.892 749.256 159.052C749.096 159.204 748.892 159.28 748.644 159.28ZM751.09 166V160.084H752.302V160.78H752.494C752.59 160.532 752.742 160.352 752.95 160.24C753.166 160.12 753.43 160.06 753.742 160.06H754.45V161.176H753.694C753.294 161.176 752.966 161.288 752.71 161.512C752.454 161.728 752.326 162.064 752.326 162.52V166H751.09ZM758.232 166.168C757.632 166.168 757.108 166.044 756.66 165.796C756.212 165.54 755.86 165.184 755.604 164.728C755.356 164.264 755.232 163.728 755.232 163.12V162.976C755.232 162.36 755.356 161.824 755.604 161.368C755.852 160.904 756.196 160.548 756.636 160.3C757.084 160.044 757.6 159.916 758.184 159.916C758.752 159.916 759.248 160.044 759.672 160.3C760.104 160.548 760.44 160.896 760.68 161.344C760.92 161.792 761.04 162.316 761.04 162.916V163.384H756.492C756.508 163.904 756.68 164.32 757.008 164.632C757.344 164.936 757.76 165.088 758.256 165.088C758.72 165.088 759.068 164.984 759.3 164.776C759.54 164.568 759.724 164.328 759.852 164.056L760.872 164.584C760.76 164.808 760.596 165.044 760.38 165.292C760.172 165.54 759.896 165.748 759.552 165.916C759.208 166.084 758.768 166.168 758.232 166.168ZM756.504 162.436H759.78C759.748 161.988 759.588 161.64 759.3 161.392C759.012 161.136 758.636 161.008 758.172 161.008C757.708 161.008 757.328 161.136 757.032 161.392C756.744 161.64 756.568 161.988 756.504 162.436ZM764.976 166.168C764.488 166.168 764.036 166.048 763.62 165.808C763.204 165.568 762.868 165.224 762.612 164.776C762.364 164.32 762.24 163.772 762.24 163.132V162.952C762.24 162.32 762.364 161.776 762.612 161.32C762.86 160.864 763.192 160.516 763.608 160.276C764.024 160.036 764.48 159.916 764.976 159.916C765.36 159.916 765.68 159.964 765.936 160.06C766.2 160.156 766.416 160.28 766.584 160.432C766.752 160.576 766.88 160.728 766.968 160.888H767.16V157.6H768.396V166H767.184V165.16H766.992C766.84 165.416 766.608 165.648 766.296 165.856C765.992 166.064 765.552 166.168 764.976 166.168ZM765.324 165.088C765.86 165.088 766.3 164.916 766.644 164.572C766.996 164.228 767.172 163.736 767.172 163.096V162.988C767.172 162.356 767 161.868 766.656 161.524C766.312 161.18 765.868 161.008 765.324 161.008C764.796 161.008 764.356 161.18 764.004 161.524C763.66 161.868 763.488 162.356 763.488 162.988V163.096C763.488 163.736 763.66 164.228 764.004 164.572C764.356 164.916 764.796 165.088 765.324 165.088Z" fill="#5C5C5C"/>
<path d="M711.005 145V131.854H710.669L708.254 136.81H705.923L709.178 130.3H713.21V145H711.005ZM721.076 145.294C719.97 145.294 719.011 145.091 718.199 144.685C717.387 144.279 716.757 143.705 716.309 142.963C715.875 142.221 715.658 141.36 715.658 140.38V140.149H717.905V140.359C717.905 141.255 718.178 141.976 718.724 142.522C719.284 143.054 720.061 143.32 721.055 143.32C722.077 143.32 722.868 143.04 723.428 142.48C723.988 141.92 724.268 141.164 724.268 140.212V140.023C724.268 139.113 723.988 138.385 723.428 137.839C722.882 137.293 722.182 137.02 721.328 137.02C720.852 137.02 720.453 137.097 720.131 137.251C719.823 137.391 719.571 137.566 719.375 137.776C719.193 137.986 719.039 138.189 718.913 138.385H716.12V130.3H725.969V132.295H718.325V136.621H718.661C718.801 136.383 718.997 136.159 719.249 135.949C719.515 135.725 719.858 135.543 720.278 135.403C720.698 135.263 721.202 135.193 721.79 135.193C722.658 135.193 723.442 135.382 724.142 135.76C724.856 136.124 725.423 136.67 725.843 137.398C726.263 138.112 726.473 138.98 726.473 140.002V140.233C726.473 141.255 726.256 142.144 725.822 142.9C725.388 143.656 724.765 144.244 723.953 144.664C723.155 145.084 722.196 145.294 721.076 145.294ZM734.068 145.294C732.36 145.294 730.995 144.811 729.973 143.845C728.965 142.865 728.461 141.395 728.461 139.435V135.865C728.461 133.947 728.965 132.491 729.973 131.497C730.995 130.503 732.36 130.006 734.068 130.006C735.79 130.006 737.155 130.503 738.163 131.497C739.185 132.491 739.696 133.947 739.696 135.865V139.435C739.696 141.395 739.185 142.865 738.163 143.845C737.155 144.811 735.79 145.294 734.068 145.294ZM734.068 143.32C735.23 143.32 736.091 142.991 736.651 142.333C737.211 141.661 737.491 140.723 737.491 139.519V135.739C737.491 134.535 737.19 133.611 736.588 132.967C735.986 132.309 735.146 131.98 734.068 131.98C732.976 131.98 732.136 132.316 731.548 132.988C730.96 133.646 730.666 134.563 730.666 135.739V139.519C730.666 140.751 730.946 141.696 731.506 142.354C732.08 142.998 732.934 143.32 734.068 143.32Z" fill="#5C5C5C"/>
<path d="M557.629 166V157.6H558.925V166H557.629ZM560.712 166V160.084H561.924V160.972H562.116C562.228 160.732 562.428 160.508 562.716 160.3C563.004 160.092 563.432 159.988 564 159.988C564.448 159.988 564.844 160.088 565.188 160.288C565.54 160.488 565.816 160.772 566.016 161.14C566.216 161.5 566.316 161.936 566.316 162.448V166H565.08V162.544C565.08 162.032 564.952 161.656 564.696 161.416C564.44 161.168 564.088 161.044 563.64 161.044C563.128 161.044 562.716 161.212 562.404 161.548C562.1 161.884 561.948 162.372 561.948 163.012V166H560.712ZM570.151 166C569.791 166 569.503 165.892 569.287 165.676C569.079 165.46 568.975 165.172 568.975 164.812V161.128H567.343V160.084H568.975V158.128H570.211V160.084H571.975V161.128H570.211V164.596C570.211 164.836 570.323 164.956 570.547 164.956H571.783V166H570.151ZM575.928 166.168C575.328 166.168 574.804 166.044 574.356 165.796C573.908 165.54 573.556 165.184 573.3 164.728C573.052 164.264 572.928 163.728 572.928 163.12V162.976C572.928 162.36 573.052 161.824 573.3 161.368C573.548 160.904 573.892 160.548 574.332 160.3C574.78 160.044 575.296 159.916 575.88 159.916C576.448 159.916 576.944 160.044 577.368 160.3C577.8 160.548 578.136 160.896 578.376 161.344C578.616 161.792 578.736 162.316 578.736 162.916V163.384H574.188C574.204 163.904 574.376 164.32 574.704 164.632C575.04 164.936 575.456 165.088 575.952 165.088C576.416 165.088 576.764 164.984 576.996 164.776C577.236 164.568 577.42 164.328 577.548 164.056L578.568 164.584C578.456 164.808 578.292 165.044 578.076 165.292C577.868 165.54 577.592 165.748 577.248 165.916C576.904 166.084 576.464 166.168 575.928 166.168ZM574.2 162.436H577.476C577.444 161.988 577.284 161.64 576.996 161.392C576.708 161.136 576.332 161.008 575.868 161.008C575.404 161.008 575.024 161.136 574.728 161.392C574.44 161.64 574.264 161.988 574.2 162.436ZM580.224 166V160.084H581.436V160.78H581.628C581.724 160.532 581.876 160.352 582.084 160.24C582.3 160.12 582.564 160.06 582.876 160.06H583.584V161.176H582.828C582.428 161.176 582.1 161.288 581.844 161.512C581.588 161.728 581.46 162.064 581.46 162.52V166H580.224ZM586.233 166L584.241 160.084H585.549L587.121 165.088H587.313L588.885 160.084H590.193L588.201 166H586.233ZM591.392 166V160.084H592.628V166H591.392ZM592.016 159.28C591.776 159.28 591.572 159.204 591.404 159.052C591.244 158.892 591.164 158.688 591.164 158.44C591.164 158.192 591.244 157.992 591.404 157.84C591.572 157.68 591.776 157.6 592.016 157.6C592.264 157.6 592.468 157.68 592.628 157.84C592.788 157.992 592.868 158.192 592.868 158.44C592.868 158.688 592.788 158.892 592.628 159.052C592.468 159.204 592.264 159.28 592.016 159.28ZM597.174 166.168C596.574 166.168 596.05 166.044 595.602 165.796C595.154 165.54 594.802 165.184 594.546 164.728C594.298 164.264 594.174 163.728 594.174 163.12V162.976C594.174 162.36 594.298 161.824 594.546 161.368C594.794 160.904 595.138 160.548 595.578 160.3C596.026 160.044 596.542 159.916 597.126 159.916C597.694 159.916 598.19 160.044 598.614 160.3C599.046 160.548 599.382 160.896 599.622 161.344C599.862 161.792 599.982 162.316 599.982 162.916V163.384H595.434C595.45 163.904 595.622 164.32 595.95 164.632C596.286 164.936 596.702 165.088 597.198 165.088C597.662 165.088 598.01 164.984 598.242 164.776C598.482 164.568 598.666 164.328 598.794 164.056L599.814 164.584C599.702 164.808 599.538 165.044 599.322 165.292C599.114 165.54 598.838 165.748 598.494 165.916C598.15 166.084 597.71 166.168 597.174 166.168ZM595.446 162.436H598.722C598.69 161.988 598.53 161.64 598.242 161.392C597.954 161.136 597.578 161.008 597.114 161.008C596.65 161.008 596.27 161.136 595.974 161.392C595.686 161.64 595.51 161.988 595.446 162.436ZM602.048 166L601.04 160.084H602.276L603.02 165.172H603.212L604.244 160.084H606.248L607.268 165.172H607.46L608.204 160.084H609.44L608.432 166H606.356L605.336 160.924H605.144L604.124 166H602.048ZM616.386 166.168C615.634 166.168 615.01 166 614.514 165.664C614.018 165.328 613.714 164.82 613.602 164.14L614.754 163.864C614.818 164.192 614.926 164.452 615.078 164.644C615.23 164.836 615.418 164.972 615.642 165.052C615.874 165.132 616.122 165.172 616.386 165.172C616.778 165.172 617.078 165.096 617.286 164.944C617.502 164.792 617.61 164.596 617.61 164.356C617.61 164.116 617.51 163.94 617.31 163.828C617.11 163.716 616.814 163.624 616.422 163.552L616.014 163.48C615.614 163.408 615.25 163.304 614.922 163.168C614.594 163.032 614.334 162.844 614.142 162.604C613.95 162.364 613.854 162.056 613.854 161.68C613.854 161.12 614.062 160.688 614.478 160.384C614.894 160.072 615.446 159.916 616.134 159.916C616.798 159.916 617.342 160.068 617.766 160.372C618.198 160.668 618.478 161.072 618.606 161.584L617.454 161.908C617.382 161.548 617.23 161.296 616.998 161.152C616.766 161 616.478 160.924 616.134 160.924C615.798 160.924 615.534 160.988 615.342 161.116C615.15 161.236 615.054 161.408 615.054 161.632C615.054 161.872 615.146 162.048 615.33 162.16C615.522 162.272 615.778 162.356 616.098 162.412L616.518 162.484C616.942 162.556 617.33 162.656 617.682 162.784C618.034 162.912 618.31 163.096 618.51 163.336C618.718 163.576 618.822 163.896 618.822 164.296C618.822 164.888 618.602 165.348 618.162 165.676C617.722 166.004 617.13 166.168 616.386 166.168ZM622.979 166.168C622.379 166.168 621.855 166.044 621.407 165.796C620.959 165.54 620.607 165.184 620.351 164.728C620.103 164.264 619.979 163.728 619.979 163.12V162.976C619.979 162.36 620.103 161.824 620.351 161.368C620.599 160.904 620.943 160.548 621.383 160.3C621.831 160.044 622.347 159.916 622.931 159.916C623.499 159.916 623.995 160.044 624.419 160.3C624.851 160.548 625.187 160.896 625.427 161.344C625.667 161.792 625.787 162.316 625.787 162.916V163.384H621.239C621.255 163.904 621.427 164.32 621.755 164.632C622.091 164.936 622.507 165.088 623.003 165.088C623.467 165.088 623.815 164.984 624.047 164.776C624.287 164.568 624.471 164.328 624.599 164.056L625.619 164.584C625.507 164.808 625.343 165.044 625.127 165.292C624.919 165.54 624.643 165.748 624.299 165.916C623.955 166.084 623.515 166.168 622.979 166.168ZM621.251 162.436H624.527C624.495 161.988 624.335 161.64 624.047 161.392C623.759 161.136 623.383 161.008 622.919 161.008C622.455 161.008 622.075 161.136 621.779 161.392C621.491 161.64 621.315 161.988 621.251 162.436ZM629.272 166C628.912 166 628.624 165.892 628.408 165.676C628.2 165.46 628.096 165.172 628.096 164.812V161.128H626.464V160.084H628.096V158.128H629.332V160.084H631.096V161.128H629.332V164.596C629.332 164.836 629.444 164.956 629.668 164.956H630.904V166H629.272Z" fill="#5C5C5C"/>
<path d="M580.107 145.294C579.029 145.294 578.07 145.098 577.23 144.706C576.39 144.314 575.732 143.747 575.256 143.005C574.794 142.263 574.563 141.381 574.563 140.359V139.981H576.768V140.317C576.768 141.241 577.069 141.976 577.671 142.522C578.287 143.054 579.099 143.32 580.107 143.32C581.115 143.32 581.899 143.068 582.459 142.564C583.019 142.06 583.299 141.423 583.299 140.653V140.464C583.299 139.918 583.166 139.477 582.9 139.141C582.634 138.805 582.277 138.56 581.829 138.406C581.381 138.238 580.877 138.154 580.317 138.154H577.65V135.613L582.816 132.568V132.274H574.92V130.3H585.21V133.282L580.275 136.222V136.516H581.178C581.92 136.516 582.62 136.656 583.278 136.936C583.936 137.216 584.468 137.643 584.874 138.217C585.294 138.791 585.504 139.519 585.504 140.401V140.653C585.504 141.591 585.28 142.41 584.832 143.11C584.384 143.796 583.754 144.335 582.942 144.727C582.13 145.105 581.185 145.294 580.107 145.294ZM593.22 145.294C591.512 145.294 590.147 144.811 589.125 143.845C588.117 142.865 587.613 141.395 587.613 139.435V135.865C587.613 133.947 588.117 132.491 589.125 131.497C590.147 130.503 591.512 130.006 593.22 130.006C594.942 130.006 596.307 130.503 597.315 131.497C598.337 132.491 598.848 133.947 598.848 135.865V139.435C598.848 141.395 598.337 142.865 597.315 143.845C596.307 144.811 594.942 145.294 593.22 145.294ZM593.22 143.32C594.382 143.32 595.243 142.991 595.803 142.333C596.363 141.661 596.643 140.723 596.643 139.519V135.739C596.643 134.535 596.342 133.611 595.74 132.967C595.138 132.309 594.298 131.98 593.22 131.98C592.128 131.98 591.288 132.316 590.7 132.988C590.112 133.646 589.818 134.563 589.818 135.739V139.519C589.818 140.751 590.098 141.696 590.658 142.354C591.232 142.998 592.086 143.32 593.22 143.32ZM606.756 145.294C605.048 145.294 603.683 144.811 602.661 143.845C601.653 142.865 601.149 141.395 601.149 139.435V135.865C601.149 133.947 601.653 132.491 602.661 131.497C603.683 130.503 605.048 130.006 606.756 130.006C608.478 130.006 609.843 130.503 610.851 131.497C611.873 132.491 612.384 133.947 612.384 135.865V139.435C612.384 141.395 611.873 142.865 610.851 143.845C609.843 144.811 608.478 145.294 606.756 145.294ZM606.756 143.32C607.918 143.32 608.779 142.991 609.339 142.333C609.899 141.661 610.179 140.723 610.179 139.519V135.739C610.179 134.535 609.878 133.611 609.276 132.967C608.674 132.309 607.834 131.98 606.756 131.98C605.664 131.98 604.824 132.316 604.236 132.988C603.648 133.646 603.354 134.563 603.354 135.739V139.519C603.354 140.751 603.634 141.696 604.194 142.354C604.768 142.998 605.622 143.32 606.756 143.32Z" fill="#5C5C5C"/>
<path d="M426.566 166V157.6H430.094C430.614 157.6 431.07 157.692 431.462 157.876C431.862 158.052 432.17 158.308 432.386 158.644C432.61 158.98 432.722 159.38 432.722 159.844V159.976C432.722 160.504 432.594 160.928 432.338 161.248C432.09 161.56 431.786 161.78 431.426 161.908V162.1C431.73 162.116 431.974 162.22 432.158 162.412C432.342 162.596 432.434 162.864 432.434 163.216V166H431.126V163.396C431.126 163.18 431.07 163.008 430.958 162.88C430.846 162.752 430.666 162.688 430.418 162.688H427.862V166H426.566ZM427.862 161.512H429.95C430.414 161.512 430.774 161.396 431.03 161.164C431.286 160.924 431.414 160.6 431.414 160.192V160.096C431.414 159.688 431.286 159.368 431.03 159.136C430.782 158.896 430.422 158.776 429.95 158.776H427.862V161.512ZM436.896 166.168C436.296 166.168 435.772 166.044 435.324 165.796C434.876 165.54 434.524 165.184 434.268 164.728C434.02 164.264 433.896 163.728 433.896 163.12V162.976C433.896 162.36 434.02 161.824 434.268 161.368C434.516 160.904 434.86 160.548 435.3 160.3C435.748 160.044 436.264 159.916 436.848 159.916C437.416 159.916 437.912 160.044 438.336 160.3C438.768 160.548 439.104 160.896 439.344 161.344C439.584 161.792 439.704 162.316 439.704 162.916V163.384H435.156C435.172 163.904 435.344 164.32 435.672 164.632C436.008 164.936 436.424 165.088 436.92 165.088C437.384 165.088 437.732 164.984 437.964 164.776C438.204 164.568 438.388 164.328 438.516 164.056L439.536 164.584C439.424 164.808 439.26 165.044 439.044 165.292C438.836 165.54 438.56 165.748 438.216 165.916C437.872 166.084 437.432 166.168 436.896 166.168ZM435.168 162.436H438.444C438.412 161.988 438.252 161.64 437.964 161.392C437.676 161.136 437.3 161.008 436.836 161.008C436.372 161.008 435.992 161.136 435.696 161.392C435.408 161.64 435.232 161.988 435.168 162.436ZM443.028 166.168C442.604 166.168 442.224 166.096 441.888 165.952C441.56 165.808 441.296 165.596 441.096 165.316C440.904 165.036 440.808 164.696 440.808 164.296C440.808 163.888 440.904 163.552 441.096 163.288C441.296 163.016 441.564 162.812 441.9 162.676C442.244 162.54 442.632 162.472 443.064 162.472H444.864V162.088C444.864 161.744 444.76 161.468 444.552 161.26C444.344 161.052 444.024 160.948 443.592 160.948C443.168 160.948 442.844 161.048 442.62 161.248C442.396 161.448 442.248 161.708 442.176 162.028L441.024 161.656C441.12 161.336 441.272 161.048 441.48 160.792C441.696 160.528 441.98 160.316 442.332 160.156C442.684 159.996 443.108 159.916 443.604 159.916C444.372 159.916 444.976 160.112 445.416 160.504C445.856 160.896 446.076 161.452 446.076 162.172V164.608C446.076 164.848 446.188 164.968 446.412 164.968H446.916V166H445.992C445.712 166 445.484 165.928 445.308 165.784C445.132 165.64 445.044 165.444 445.044 165.196V165.16H444.864C444.8 165.28 444.704 165.42 444.576 165.58C444.448 165.74 444.26 165.88 444.012 166C443.764 166.112 443.436 166.168 443.028 166.168ZM443.208 165.148C443.704 165.148 444.104 165.008 444.408 164.728C444.712 164.44 444.864 164.048 444.864 163.552V163.432H443.136C442.808 163.432 442.544 163.504 442.344 163.648C442.144 163.784 442.044 163.988 442.044 164.26C442.044 164.532 442.148 164.748 442.356 164.908C442.564 165.068 442.848 165.148 443.208 165.148ZM450.725 166.168C450.157 166.168 449.641 166.048 449.177 165.808C448.721 165.568 448.357 165.22 448.085 164.764C447.821 164.308 447.689 163.76 447.689 163.12V162.964C447.689 162.324 447.821 161.78 448.085 161.332C448.357 160.876 448.721 160.528 449.177 160.288C449.641 160.04 450.157 159.916 450.725 159.916C451.293 159.916 451.777 160.02 452.177 160.228C452.577 160.436 452.897 160.712 453.137 161.056C453.385 161.4 453.545 161.78 453.617 162.196L452.417 162.448C452.377 162.184 452.293 161.944 452.165 161.728C452.037 161.512 451.857 161.34 451.625 161.212C451.393 161.084 451.101 161.02 450.749 161.02C450.405 161.02 450.093 161.1 449.813 161.26C449.541 161.412 449.325 161.636 449.165 161.932C449.005 162.22 448.925 162.572 448.925 162.988V163.096C448.925 163.512 449.005 163.868 449.165 164.164C449.325 164.46 449.541 164.684 449.813 164.836C450.093 164.988 450.405 165.064 450.749 165.064C451.269 165.064 451.665 164.932 451.937 164.668C452.209 164.396 452.381 164.052 452.453 163.636L453.653 163.912C453.557 164.32 453.385 164.696 453.137 165.04C452.897 165.384 452.577 165.66 452.177 165.868C451.777 166.068 451.293 166.168 450.725 166.168ZM455.079 166V157.6H456.315V160.924H456.507C456.587 160.772 456.699 160.624 456.843 160.48C456.995 160.336 457.191 160.22 457.431 160.132C457.679 160.036 457.991 159.988 458.367 159.988C458.815 159.988 459.211 160.088 459.555 160.288C459.907 160.488 460.183 160.772 460.383 161.14C460.583 161.5 460.683 161.936 460.683 162.448V166H459.447V162.544C459.447 162.032 459.319 161.656 459.063 161.416C458.807 161.168 458.455 161.044 458.007 161.044C457.495 161.044 457.083 161.212 456.771 161.548C456.467 161.884 456.315 162.372 456.315 163.012V166H455.079ZM465.173 166.168C464.573 166.168 464.049 166.044 463.601 165.796C463.153 165.54 462.801 165.184 462.545 164.728C462.297 164.264 462.173 163.728 462.173 163.12V162.976C462.173 162.36 462.297 161.824 462.545 161.368C462.793 160.904 463.137 160.548 463.577 160.3C464.025 160.044 464.541 159.916 465.125 159.916C465.693 159.916 466.189 160.044 466.613 160.3C467.045 160.548 467.381 160.896 467.621 161.344C467.861 161.792 467.981 162.316 467.981 162.916V163.384H463.433C463.449 163.904 463.621 164.32 463.949 164.632C464.285 164.936 464.701 165.088 465.197 165.088C465.661 165.088 466.009 164.984 466.241 164.776C466.481 164.568 466.665 164.328 466.793 164.056L467.813 164.584C467.701 164.808 467.537 165.044 467.321 165.292C467.113 165.54 466.837 165.748 466.493 165.916C466.149 166.084 465.709 166.168 465.173 166.168ZM463.445 162.436H466.721C466.689 161.988 466.529 161.64 466.241 161.392C465.953 161.136 465.577 161.008 465.113 161.008C464.649 161.008 464.269 161.136 463.973 161.392C463.685 161.64 463.509 161.988 463.445 162.436ZM471.917 166.168C471.429 166.168 470.977 166.048 470.561 165.808C470.145 165.568 469.809 165.224 469.553 164.776C469.305 164.32 469.181 163.772 469.181 163.132V162.952C469.181 162.32 469.305 161.776 469.553 161.32C469.801 160.864 470.133 160.516 470.549 160.276C470.965 160.036 471.421 159.916 471.917 159.916C472.301 159.916 472.621 159.964 472.877 160.06C473.141 160.156 473.357 160.28 473.525 160.432C473.693 160.576 473.821 160.728 473.909 160.888H474.101V157.6H475.337V166H474.125V165.16H473.933C473.781 165.416 473.549 165.648 473.237 165.856C472.933 166.064 472.493 166.168 471.917 166.168ZM472.265 165.088C472.801 165.088 473.241 164.916 473.585 164.572C473.937 164.228 474.113 163.736 474.113 163.096V162.988C474.113 162.356 473.941 161.868 473.597 161.524C473.253 161.18 472.809 161.008 472.265 161.008C471.737 161.008 471.297 161.18 470.945 161.524C470.601 161.868 470.429 162.356 470.429 162.988V163.096C470.429 163.736 470.601 164.228 470.945 164.572C471.297 164.916 471.737 165.088 472.265 165.088ZM483.335 166.168C482.303 166.168 481.483 165.88 480.875 165.304C480.267 164.72 479.963 163.88 479.963 162.784V160.816C479.963 159.72 480.267 158.884 480.875 158.308C481.483 157.724 482.303 157.432 483.335 157.432C484.367 157.432 485.187 157.724 485.795 158.308C486.411 158.884 486.719 159.72 486.719 160.816V162.784C486.719 163.88 486.411 164.72 485.795 165.304C485.187 165.88 484.367 166.168 483.335 166.168ZM483.335 165.004C483.999 165.004 484.511 164.812 484.871 164.428C485.231 164.036 485.411 163.504 485.411 162.832V160.768C485.411 160.096 485.231 159.568 484.871 159.184C484.511 158.792 483.999 158.596 483.335 158.596C482.687 158.596 482.179 158.792 481.811 159.184C481.443 159.568 481.259 160.096 481.259 160.768V162.832C481.259 163.504 481.443 164.036 481.811 164.428C482.179 164.812 482.687 165.004 483.335 165.004ZM490.558 166.108C490.11 166.108 489.71 166.008 489.358 165.808C489.006 165.608 488.73 165.324 488.53 164.956C488.33 164.588 488.23 164.148 488.23 163.636V160.084H489.466V163.552C489.466 164.064 489.594 164.444 489.85 164.692C490.106 164.932 490.462 165.052 490.918 165.052C491.422 165.052 491.826 164.884 492.13 164.548C492.442 164.204 492.598 163.712 492.598 163.072V160.084H493.834V166H492.622V165.112H492.43C492.318 165.352 492.118 165.58 491.83 165.796C491.542 166.004 491.118 166.108 490.558 166.108ZM497.881 166C497.521 166 497.233 165.892 497.017 165.676C496.809 165.46 496.705 165.172 496.705 164.812V161.128H495.073V160.084H496.705V158.128H497.941V160.084H499.705V161.128H497.941V164.596C497.941 164.836 498.053 164.956 498.277 164.956H499.513V166H497.881Z" fill="#5C5C5C"/>
<path d="M450.263 145.294C449.185 145.294 448.226 145.098 447.386 144.706C446.546 144.314 445.888 143.747 445.412 143.005C444.95 142.263 444.719 141.381 444.719 140.359V139.981H446.924V140.317C446.924 141.241 447.225 141.976 447.827 142.522C448.443 143.054 449.255 143.32 450.263 143.32C451.271 143.32 452.055 143.068 452.615 142.564C453.175 142.06 453.455 141.423 453.455 140.653V140.464C453.455 139.918 453.322 139.477 453.056 139.141C452.79 138.805 452.433 138.56 451.985 138.406C451.537 138.238 451.033 138.154 450.473 138.154H447.806V135.613L452.972 132.568V132.274H445.076V130.3H455.366V133.282L450.431 136.222V136.516H451.334C452.076 136.516 452.776 136.656 453.434 136.936C454.092 137.216 454.624 137.643 455.03 138.217C455.45 138.791 455.66 139.519 455.66 140.401V140.653C455.66 141.591 455.436 142.41 454.988 143.11C454.54 143.796 453.91 144.335 453.098 144.727C452.286 145.105 451.341 145.294 450.263 145.294ZM459.575 145V144.475C459.575 143.943 459.617 143.502 459.701 143.152C459.785 142.788 459.96 142.368 460.226 141.892L465.476 132.547V132.274H457.223V130.3H467.765V132.904L462.242 142.816C462.074 143.124 461.955 143.404 461.885 143.656C461.815 143.894 461.78 144.195 461.78 144.559V145H459.575ZM474.687 145.294C473.581 145.294 472.622 145.091 471.81 144.685C470.998 144.279 470.368 143.705 469.92 142.963C469.486 142.221 469.269 141.36 469.269 140.38V140.149H471.516V140.359C471.516 141.255 471.789 141.976 472.335 142.522C472.895 143.054 473.672 143.32 474.666 143.32C475.688 143.32 476.479 143.04 477.039 142.48C477.599 141.92 477.879 141.164 477.879 140.212V140.023C477.879 139.113 477.599 138.385 477.039 137.839C476.493 137.293 475.793 137.02 474.939 137.02C474.463 137.02 474.064 137.097 473.742 137.251C473.434 137.391 473.182 137.566 472.986 137.776C472.804 137.986 472.65 138.189 472.524 138.385H469.731V130.3H479.58V132.295H471.936V136.621H472.272C472.412 136.383 472.608 136.159 472.86 135.949C473.126 135.725 473.469 135.543 473.889 135.403C474.309 135.263 474.813 135.193 475.401 135.193C476.269 135.193 477.053 135.382 477.753 135.76C478.467 136.124 479.034 136.67 479.454 137.398C479.874 138.112 480.084 138.98 480.084 140.002V140.233C480.084 141.255 479.867 142.144 479.433 142.9C478.999 143.656 478.376 144.244 477.564 144.664C476.766 145.084 475.807 145.294 474.687 145.294Z" fill="#5C5C5C"/>
<path d="M283.738 159.566C283.738 160.089 283.612 160.579 283.36 161.036C283.118 161.494 282.73 161.862 282.198 162.142C281.676 162.422 281.013 162.562 280.21 162.562H278.572V166.314H276.612V156.542H280.21C280.966 156.542 281.61 156.673 282.142 156.934C282.674 157.196 283.071 157.555 283.332 158.012C283.603 158.47 283.738 158.988 283.738 159.566ZM280.126 160.98C280.668 160.98 281.069 160.859 281.33 160.616C281.592 160.364 281.722 160.014 281.722 159.566C281.722 158.614 281.19 158.138 280.126 158.138H278.572V160.98H280.126ZM287.09 159.762C287.342 159.352 287.669 159.03 288.07 158.796C288.481 158.563 288.947 158.446 289.47 158.446V160.504H288.952C288.336 160.504 287.869 160.649 287.552 160.938C287.244 161.228 287.09 161.732 287.09 162.45V166.314H285.13V158.558H287.09V159.762ZM294.234 166.44C293.488 166.44 292.816 166.277 292.218 165.95C291.621 165.614 291.15 165.143 290.804 164.536C290.468 163.93 290.3 163.23 290.3 162.436C290.3 161.643 290.473 160.943 290.818 160.336C291.173 159.73 291.654 159.263 292.26 158.936C292.867 158.6 293.544 158.432 294.29 158.432C295.037 158.432 295.714 158.6 296.32 158.936C296.927 159.263 297.403 159.73 297.748 160.336C298.103 160.943 298.28 161.643 298.28 162.436C298.28 163.23 298.098 163.93 297.734 164.536C297.38 165.143 296.894 165.614 296.278 165.95C295.672 166.277 294.99 166.44 294.234 166.44ZM294.234 164.732C294.589 164.732 294.92 164.648 295.228 164.48C295.546 164.303 295.798 164.042 295.984 163.696C296.171 163.351 296.264 162.931 296.264 162.436C296.264 161.699 296.068 161.134 295.676 160.742C295.294 160.341 294.822 160.14 294.262 160.14C293.702 160.14 293.231 160.341 292.848 160.742C292.475 161.134 292.288 161.699 292.288 162.436C292.288 163.174 292.47 163.743 292.834 164.144C293.208 164.536 293.674 164.732 294.234 164.732ZM302.686 166.44C302.051 166.44 301.482 166.328 300.978 166.104C300.474 165.871 300.073 165.558 299.774 165.166C299.485 164.774 299.326 164.34 299.298 163.864H301.272C301.309 164.163 301.454 164.41 301.706 164.606C301.967 164.802 302.289 164.9 302.672 164.9C303.045 164.9 303.335 164.826 303.54 164.676C303.755 164.527 303.862 164.336 303.862 164.102C303.862 163.85 303.731 163.664 303.47 163.542C303.218 163.412 302.812 163.272 302.252 163.122C301.673 162.982 301.197 162.838 300.824 162.688C300.46 162.539 300.143 162.31 299.872 162.002C299.611 161.694 299.48 161.279 299.48 160.756C299.48 160.327 299.601 159.935 299.844 159.58C300.096 159.226 300.451 158.946 300.908 158.74C301.375 158.535 301.921 158.432 302.546 158.432C303.47 158.432 304.207 158.666 304.758 159.132C305.309 159.59 305.612 160.21 305.668 160.994H303.792C303.764 160.686 303.633 160.444 303.4 160.266C303.176 160.08 302.873 159.986 302.49 159.986C302.135 159.986 301.86 160.052 301.664 160.182C301.477 160.313 301.384 160.495 301.384 160.728C301.384 160.99 301.515 161.19 301.776 161.33C302.037 161.461 302.443 161.596 302.994 161.736C303.554 161.876 304.016 162.021 304.38 162.17C304.744 162.32 305.057 162.553 305.318 162.87C305.589 163.178 305.729 163.589 305.738 164.102C305.738 164.55 305.612 164.952 305.36 165.306C305.117 165.661 304.763 165.941 304.296 166.146C303.839 166.342 303.302 166.44 302.686 166.44ZM309.307 159.678C309.559 159.324 309.904 159.03 310.343 158.796C310.791 158.554 311.3 158.432 311.869 158.432C312.532 158.432 313.129 158.596 313.661 158.922C314.202 159.249 314.627 159.716 314.935 160.322C315.252 160.92 315.411 161.615 315.411 162.408C315.411 163.202 315.252 163.906 314.935 164.522C314.627 165.129 314.202 165.6 313.661 165.936C313.129 166.272 312.532 166.44 311.869 166.44C311.3 166.44 310.796 166.324 310.357 166.09C309.928 165.857 309.578 165.563 309.307 165.208V170.01H307.347V158.558H309.307V159.678ZM313.409 162.408C313.409 161.942 313.311 161.54 313.115 161.204C312.928 160.859 312.676 160.598 312.359 160.42C312.051 160.243 311.715 160.154 311.351 160.154C310.996 160.154 310.66 160.248 310.343 160.434C310.035 160.612 309.783 160.873 309.587 161.218C309.4 161.564 309.307 161.97 309.307 162.436C309.307 162.903 309.4 163.309 309.587 163.654C309.783 164 310.035 164.266 310.343 164.452C310.66 164.63 310.996 164.718 311.351 164.718C311.715 164.718 312.051 164.625 312.359 164.438C312.676 164.252 312.928 163.986 313.115 163.64C313.311 163.295 313.409 162.884 313.409 162.408ZM324.045 162.268C324.045 162.548 324.026 162.8 323.989 163.024H318.319C318.366 163.584 318.562 164.023 318.907 164.34C319.252 164.658 319.677 164.816 320.181 164.816C320.909 164.816 321.427 164.504 321.735 163.878H323.849C323.625 164.625 323.196 165.241 322.561 165.726C321.926 166.202 321.147 166.44 320.223 166.44C319.476 166.44 318.804 166.277 318.207 165.95C317.619 165.614 317.157 165.143 316.821 164.536C316.494 163.93 316.331 163.23 316.331 162.436C316.331 161.634 316.494 160.929 316.821 160.322C317.148 159.716 317.605 159.249 318.193 158.922C318.781 158.596 319.458 158.432 320.223 158.432C320.96 158.432 321.618 158.591 322.197 158.908C322.785 159.226 323.238 159.678 323.555 160.266C323.882 160.845 324.045 161.512 324.045 162.268ZM322.015 161.708C322.006 161.204 321.824 160.803 321.469 160.504C321.114 160.196 320.68 160.042 320.167 160.042C319.682 160.042 319.271 160.192 318.935 160.49C318.608 160.78 318.408 161.186 318.333 161.708H322.015ZM324.972 162.436C324.972 161.634 325.135 160.934 325.462 160.336C325.788 159.73 326.241 159.263 326.82 158.936C327.398 158.6 328.061 158.432 328.808 158.432C329.769 158.432 330.562 158.675 331.188 159.16C331.822 159.636 332.247 160.308 332.462 161.176H330.348C330.236 160.84 330.044 160.579 329.774 160.392C329.512 160.196 329.186 160.098 328.794 160.098C328.234 160.098 327.79 160.304 327.464 160.714C327.137 161.116 326.974 161.69 326.974 162.436C326.974 163.174 327.137 163.748 327.464 164.158C327.79 164.56 328.234 164.76 328.794 164.76C329.587 164.76 330.105 164.406 330.348 163.696H332.462C332.247 164.536 331.822 165.204 331.188 165.698C330.553 166.193 329.76 166.44 328.808 166.44C328.061 166.44 327.398 166.277 326.82 165.95C326.241 165.614 325.788 165.148 325.462 164.55C325.135 163.944 324.972 163.239 324.972 162.436ZM336.18 160.168V163.92C336.18 164.182 336.24 164.373 336.362 164.494C336.492 164.606 336.707 164.662 337.006 164.662H337.916V166.314H336.684C335.032 166.314 334.206 165.512 334.206 163.906V160.168H333.282V158.558H334.206V156.64H336.18V158.558H337.916V160.168H336.18ZM342.293 166.44C341.659 166.44 341.089 166.328 340.585 166.104C340.081 165.871 339.68 165.558 339.381 165.166C339.092 164.774 338.933 164.34 338.905 163.864H340.879C340.917 164.163 341.061 164.41 341.313 164.606C341.575 164.802 341.897 164.9 342.279 164.9C342.653 164.9 342.942 164.826 343.147 164.676C343.362 164.527 343.469 164.336 343.469 164.102C343.469 163.85 343.339 163.664 343.077 163.542C342.825 163.412 342.419 163.272 341.859 163.122C341.281 162.982 340.805 162.838 340.431 162.688C340.067 162.539 339.75 162.31 339.479 162.002C339.218 161.694 339.087 161.279 339.087 160.756C339.087 160.327 339.209 159.935 339.451 159.58C339.703 159.226 340.058 158.946 340.515 158.74C340.982 158.535 341.528 158.432 342.153 158.432C343.077 158.432 343.815 158.666 344.365 159.132C344.916 159.59 345.219 160.21 345.275 160.994H343.399C343.371 160.686 343.241 160.444 343.007 160.266C342.783 160.08 342.48 159.986 342.097 159.986C341.743 159.986 341.467 160.052 341.271 160.182C341.085 160.313 340.991 160.495 340.991 160.728C340.991 160.99 341.122 161.19 341.383 161.33C341.645 161.461 342.051 161.596 342.601 161.736C343.161 161.876 343.623 162.021 343.987 162.17C344.351 162.32 344.664 162.553 344.925 162.87C345.196 163.178 345.336 163.589 345.345 164.102C345.345 164.55 345.219 164.952 344.967 165.306C344.725 165.661 344.37 165.941 343.903 166.146C343.446 166.342 342.909 166.44 342.293 166.44ZM349.786 162.408C349.786 161.624 349.94 160.929 350.248 160.322C350.566 159.716 350.99 159.249 351.522 158.922C352.064 158.596 352.666 158.432 353.328 158.432C353.907 158.432 354.411 158.549 354.84 158.782C355.279 159.016 355.629 159.31 355.89 159.664V158.558H357.864V166.314H355.89V165.18C355.638 165.544 355.288 165.848 354.84 166.09C354.402 166.324 353.893 166.44 353.314 166.44C352.661 166.44 352.064 166.272 351.522 165.936C350.99 165.6 350.566 165.129 350.248 164.522C349.94 163.906 349.786 163.202 349.786 162.408ZM355.89 162.436C355.89 161.96 355.797 161.554 355.61 161.218C355.424 160.873 355.172 160.612 354.854 160.434C354.537 160.248 354.196 160.154 353.832 160.154C353.468 160.154 353.132 160.243 352.824 160.42C352.516 160.598 352.264 160.859 352.068 161.204C351.882 161.54 351.788 161.942 351.788 162.408C351.788 162.875 351.882 163.286 352.068 163.64C352.264 163.986 352.516 164.252 352.824 164.438C353.142 164.625 353.478 164.718 353.832 164.718C354.196 164.718 354.537 164.63 354.854 164.452C355.172 164.266 355.424 164.004 355.61 163.668C355.797 163.323 355.89 162.912 355.89 162.436ZM359.274 162.408C359.274 161.624 359.428 160.929 359.736 160.322C360.054 159.716 360.483 159.249 361.025 158.922C361.566 158.596 362.168 158.432 362.831 158.432C363.335 158.432 363.815 158.544 364.273 158.768C364.73 158.983 365.094 159.272 365.365 159.636V155.954H367.353V166.314H365.365V165.166C365.122 165.549 364.781 165.857 364.343 166.09C363.904 166.324 363.395 166.44 362.817 166.44C362.163 166.44 361.566 166.272 361.025 165.936C360.483 165.6 360.054 165.129 359.736 164.522C359.428 163.906 359.274 163.202 359.274 162.408ZM365.379 162.436C365.379 161.96 365.285 161.554 365.099 161.218C364.912 160.873 364.66 160.612 364.343 160.434C364.025 160.248 363.685 160.154 363.321 160.154C362.957 160.154 362.621 160.243 362.312 160.42C362.005 160.598 361.753 160.859 361.557 161.204C361.37 161.54 361.277 161.942 361.277 162.408C361.277 162.875 361.37 163.286 361.557 163.64C361.753 163.986 362.005 164.252 362.312 164.438C362.63 164.625 362.966 164.718 363.321 164.718C363.685 164.718 364.025 164.63 364.343 164.452C364.66 164.266 364.912 164.004 365.099 163.668C365.285 163.323 365.379 162.912 365.379 162.436ZM368.763 162.408C368.763 161.624 368.917 160.929 369.225 160.322C369.542 159.716 369.971 159.249 370.513 158.922C371.054 158.596 371.656 158.432 372.319 158.432C372.823 158.432 373.303 158.544 373.761 158.768C374.218 158.983 374.582 159.272 374.853 159.636V155.954H376.841V166.314H374.853V165.166C374.61 165.549 374.269 165.857 373.831 166.09C373.392 166.324 372.883 166.44 372.305 166.44C371.651 166.44 371.054 166.272 370.513 165.936C369.971 165.6 369.542 165.129 369.225 164.522C368.917 163.906 368.763 163.202 368.763 162.408ZM374.867 162.436C374.867 161.96 374.773 161.554 374.587 161.218C374.4 160.873 374.148 160.612 373.831 160.434C373.513 160.248 373.173 160.154 372.809 160.154C372.445 160.154 372.109 160.243 371.801 160.42C371.493 160.598 371.241 160.859 371.045 161.204C370.858 161.54 370.765 161.942 370.765 162.408C370.765 162.875 370.858 163.286 371.045 163.64C371.241 163.986 371.493 164.252 371.801 164.438C372.118 164.625 372.454 164.718 372.809 164.718C373.173 164.718 373.513 164.63 373.831 164.452C374.148 164.266 374.4 164.004 374.587 163.668C374.773 163.323 374.867 162.912 374.867 162.436ZM385.965 162.268C385.965 162.548 385.946 162.8 385.909 163.024H380.239C380.286 163.584 380.482 164.023 380.827 164.34C381.172 164.658 381.597 164.816 382.101 164.816C382.829 164.816 383.347 164.504 383.655 163.878H385.769C385.545 164.625 385.116 165.241 384.481 165.726C383.846 166.202 383.067 166.44 382.143 166.44C381.396 166.44 380.724 166.277 380.127 165.95C379.539 165.614 379.077 165.143 378.741 164.536C378.414 163.93 378.251 163.23 378.251 162.436C378.251 161.634 378.414 160.929 378.741 160.322C379.068 159.716 379.525 159.249 380.113 158.922C380.701 158.596 381.378 158.432 382.143 158.432C382.88 158.432 383.538 158.591 384.117 158.908C384.705 159.226 385.158 159.678 385.475 160.266C385.802 160.845 385.965 161.512 385.965 162.268ZM383.935 161.708C383.926 161.204 383.744 160.803 383.389 160.504C383.034 160.196 382.6 160.042 382.087 160.042C381.602 160.042 381.191 160.192 380.855 160.49C380.528 160.78 380.328 161.186 380.253 161.708H383.935ZM386.892 162.408C386.892 161.624 387.046 160.929 387.354 160.322C387.671 159.716 388.1 159.249 388.642 158.922C389.183 158.596 389.785 158.432 390.448 158.432C390.952 158.432 391.432 158.544 391.89 158.768C392.347 158.983 392.711 159.272 392.982 159.636V155.954H394.97V166.314H392.982V165.166C392.739 165.549 392.398 165.857 391.96 166.09C391.521 166.324 391.012 166.44 390.434 166.44C389.78 166.44 389.183 166.272 388.642 165.936C388.1 165.6 387.671 165.129 387.354 164.522C387.046 163.906 386.892 163.202 386.892 162.408ZM392.996 162.436C392.996 161.96 392.902 161.554 392.716 161.218C392.529 160.873 392.277 160.612 391.96 160.434C391.642 160.248 391.302 160.154 390.938 160.154C390.574 160.154 390.238 160.243 389.93 160.42C389.622 160.598 389.37 160.859 389.174 161.204C388.987 161.54 388.894 161.942 388.894 162.408C388.894 162.875 388.987 163.286 389.174 163.64C389.37 163.986 389.622 164.252 389.93 164.438C390.247 164.625 390.583 164.718 390.938 164.718C391.302 164.718 391.642 164.63 391.96 164.452C392.277 164.266 392.529 164.004 392.716 163.668C392.902 163.323 392.996 162.912 392.996 162.436Z" fill="#5C5C5C"/>
<path d="M302.301 149.097C302.429 149.801 302.717 150.345 303.165 150.729C303.629 151.097 304.245 151.281 305.013 151.281C306.005 151.281 306.725 150.873 307.173 150.057C307.621 149.225 307.845 147.833 307.845 145.881C307.477 146.393 306.957 146.793 306.285 147.081C305.629 147.369 304.917 147.513 304.149 147.513C303.125 147.513 302.197 147.305 301.365 146.889C300.549 146.457 299.901 145.825 299.421 144.993C298.941 144.145 298.701 143.121 298.701 141.921C298.701 140.145 299.229 138.737 300.285 137.697C301.341 136.641 302.781 136.113 304.605 136.113C306.877 136.113 308.477 136.841 309.405 138.297C310.349 139.753 310.821 141.945 310.821 144.873C310.821 146.953 310.637 148.657 310.269 149.985C309.917 151.313 309.301 152.321 308.421 153.009C307.557 153.697 306.373 154.041 304.869 154.041C303.685 154.041 302.677 153.817 301.845 153.369C301.013 152.905 300.373 152.305 299.925 151.569C299.493 150.817 299.245 149.993 299.181 149.097H302.301ZM304.845 144.777C305.677 144.777 306.333 144.521 306.813 144.009C307.293 143.497 307.533 142.809 307.533 141.945C307.533 141.001 307.277 140.273 306.765 139.761C306.269 139.233 305.589 138.969 304.725 138.969C303.861 138.969 303.173 139.241 302.661 139.785C302.165 140.313 301.917 141.017 301.917 141.897C301.917 142.745 302.157 143.441 302.637 143.985C303.133 144.513 303.869 144.777 304.845 144.777ZM313.437 145.041C313.437 142.273 313.933 140.105 314.925 138.537C315.933 136.969 317.597 136.185 319.917 136.185C322.237 136.185 323.893 136.969 324.885 138.537C325.893 140.105 326.397 142.273 326.397 145.041C326.397 147.825 325.893 150.009 324.885 151.593C323.893 153.177 322.237 153.969 319.917 153.969C317.597 153.969 315.933 153.177 314.925 151.593C313.933 150.009 313.437 147.825 313.437 145.041ZM323.085 145.041C323.085 143.857 323.005 142.865 322.845 142.065C322.701 141.249 322.397 140.585 321.933 140.073C321.485 139.561 320.813 139.305 319.917 139.305C319.021 139.305 318.341 139.561 317.877 140.073C317.429 140.585 317.125 141.249 316.965 142.065C316.821 142.865 316.749 143.857 316.749 145.041C316.749 146.257 316.821 147.281 316.965 148.113C317.109 148.929 317.413 149.593 317.877 150.105C318.341 150.601 319.021 150.849 319.917 150.849C320.813 150.849 321.493 150.601 321.957 150.105C322.421 149.593 322.725 148.929 322.869 148.113C323.013 147.281 323.085 146.257 323.085 145.041ZM328.952 145.041C328.952 142.273 329.448 140.105 330.44 138.537C331.448 136.969 333.112 136.185 335.432 136.185C337.752 136.185 339.408 136.969 340.4 138.537C341.408 140.105 341.912 142.273 341.912 145.041C341.912 147.825 341.408 150.009 340.4 151.593C339.408 153.177 337.752 153.969 335.432 153.969C333.112 153.969 331.448 153.177 330.44 151.593C329.448 150.009 328.952 147.825 328.952 145.041ZM338.6 145.041C338.6 143.857 338.52 142.865 338.36 142.065C338.216 141.249 337.912 140.585 337.448 140.073C337 139.561 336.328 139.305 335.432 139.305C334.536 139.305 333.856 139.561 333.392 140.073C332.944 140.585 332.64 141.249 332.48 142.065C332.336 142.865 332.264 143.857 332.264 145.041C332.264 146.257 332.336 147.281 332.48 148.113C332.624 148.929 332.928 149.593 333.392 150.105C333.856 150.601 334.536 150.849 335.432 150.849C336.328 150.849 337.008 150.601 337.472 150.105C337.936 149.593 338.24 148.929 338.384 148.113C338.528 147.281 338.6 146.257 338.6 145.041Z" fill="#5C5C5C"/>
<path d="M260.419 90.0002C226.608 92.6568 192.767 106 87.2138 36.4644C70.3824 25.3762 40.9777 21.6451 28.9354 27.0002C15.0752 33.1636 10.496 36.6741 0 47.4994V118H789V110.578C785.387 110.987 766.029 108.559 730.722 107.578C686.587 106.352 676.717 107.578 644.323 107.578C611.929 107.578 577.851 108.726 546.105 107.5C514.36 106.274 488.029 106.792 445.443 102.5C411.374 99.0671 306.102 90.8176 260.419 90.0002Z" fill="#665FEF" fill-opacity="0.2"/>
<path d="M260.419 90.0002C226.608 92.6568 192.767 106 87.2138 36.4644C70.3824 25.3762 40.9777 21.6451 28.9354 27.0002C15.0752 33.1636 10.496 36.6741 0 47.4994V118H789V110.578C785.387 110.987 766.029 108.559 730.722 107.578C686.587 106.352 676.717 107.578 644.323 107.578C611.929 107.578 577.851 108.726 546.105 107.5C514.36 106.274 488.029 106.792 445.443 102.5C411.374 99.0671 306.102 90.8176 260.419 90.0002Z" fill="black" fill-opacity="0.2"/>
<line x1="133.043" y1="3.64354e-08" x2="133.043" y2="150" stroke="#EFEFEF" stroke-width="2"/>
<line x1="661.217" y1="3.64354e-08" x2="661.217" y2="150" stroke="#EFEFEF" stroke-width="2"/>
<line x1="529.174" y1="3.64354e-08" x2="529.174" y2="150" stroke="#EFEFEF" stroke-width="2"/>
<rect x="264.087" width="132.043" height="174" rx="8" fill="#F2F2F2"/>
<mask id="mask0_15_4944" style="mask-type:alpha" maskUnits="userSpaceOnUse" x="264" y="0" width="133" height="174">
<rect x="264.087" width="132.043" height="174" fill="#DFDFDF"/>
</mask>
<g mask="url(#mask0_15_4944)">
<path d="M278.049 166.168C277.017 166.168 276.197 165.88 275.589 165.304C274.981 164.72 274.677 163.88 274.677 162.784V160.816C274.677 159.72 274.981 158.884 275.589 158.308C276.197 157.724 277.017 157.432 278.049 157.432C279.081 157.432 279.901 157.724 280.509 158.308C281.125 158.884 281.433 159.72 281.433 160.816V162.784C281.433 163.88 281.125 164.72 280.509 165.304C279.901 165.88 279.081 166.168 278.049 166.168ZM278.049 165.004C278.713 165.004 279.225 164.812 279.585 164.428C279.945 164.036 280.125 163.504 280.125 162.832V160.768C280.125 160.096 279.945 159.568 279.585 159.184C279.225 158.792 278.713 158.596 278.049 158.596C277.401 158.596 276.893 158.792 276.525 159.184C276.157 159.568 275.973 160.096 275.973 160.768V162.832C275.973 163.504 276.157 164.036 276.525 164.428C276.893 164.812 277.401 165.004 278.049 165.004ZM278.565 168.052C278.221 168.052 277.941 167.944 277.725 167.728C277.517 167.52 277.413 167.236 277.413 166.876V166H278.685V166.66C278.685 166.9 278.797 167.02 279.021 167.02H279.765V168.052H278.565ZM285.271 166.108C284.823 166.108 284.423 166.008 284.071 165.808C283.719 165.608 283.443 165.324 283.243 164.956C283.043 164.588 282.943 164.148 282.943 163.636V160.084H284.179V163.552C284.179 164.064 284.307 164.444 284.563 164.692C284.819 164.932 285.175 165.052 285.631 165.052C286.135 165.052 286.539 164.884 286.843 164.548C287.155 164.204 287.311 163.712 287.311 163.072V160.084H288.547V166H287.335V165.112H287.143C287.031 165.352 286.831 165.58 286.543 165.796C286.255 166.004 285.831 166.108 285.271 166.108ZM292.21 166.168C291.786 166.168 291.406 166.096 291.07 165.952C290.742 165.808 290.478 165.596 290.278 165.316C290.086 165.036 289.99 164.696 289.99 164.296C289.99 163.888 290.086 163.552 290.278 163.288C290.478 163.016 290.746 162.812 291.082 162.676C291.426 162.54 291.814 162.472 292.246 162.472H294.046V162.088C294.046 161.744 293.942 161.468 293.734 161.26C293.526 161.052 293.206 160.948 292.774 160.948C292.35 160.948 292.026 161.048 291.802 161.248C291.578 161.448 291.43 161.708 291.358 162.028L290.206 161.656C290.302 161.336 290.454 161.048 290.662 160.792C290.878 160.528 291.162 160.316 291.514 160.156C291.866 159.996 292.29 159.916 292.786 159.916C293.554 159.916 294.158 160.112 294.598 160.504C295.038 160.896 295.258 161.452 295.258 162.172V164.608C295.258 164.848 295.37 164.968 295.594 164.968H296.098V166H295.174C294.894 166 294.666 165.928 294.49 165.784C294.314 165.64 294.226 165.444 294.226 165.196V165.16H294.046C293.982 165.28 293.886 165.42 293.758 165.58C293.63 165.74 293.442 165.88 293.194 166C292.946 166.112 292.618 166.168 292.21 166.168ZM292.39 165.148C292.886 165.148 293.286 165.008 293.59 164.728C293.894 164.44 294.046 164.048 294.046 163.552V163.432H292.318C291.99 163.432 291.726 163.504 291.526 163.648C291.326 163.784 291.226 163.988 291.226 164.26C291.226 164.532 291.33 164.748 291.538 164.908C291.746 165.068 292.03 165.148 292.39 165.148ZM297.3 166V157.6H298.536V166H297.3ZM300.371 166V160.084H301.607V166H300.371ZM300.995 159.28C300.755 159.28 300.551 159.204 300.383 159.052C300.223 158.892 300.143 158.688 300.143 158.44C300.143 158.192 300.223 157.992 300.383 157.84C300.551 157.68 300.755 157.6 300.995 157.6C301.243 157.6 301.447 157.68 301.607 157.84C301.767 157.992 301.847 158.192 301.847 158.44C301.847 158.688 301.767 158.892 301.607 159.052C301.447 159.204 301.243 159.28 300.995 159.28ZM304.509 166V161.128H302.853V160.084H304.509V158.788C304.509 158.428 304.617 158.14 304.833 157.924C305.049 157.708 305.337 157.6 305.697 157.6H307.221V158.644H306.093C305.861 158.644 305.745 158.764 305.745 159.004V160.084H307.449V161.128H305.745V166H304.509ZM308.398 166V160.084H309.634V166H308.398ZM309.022 159.28C308.782 159.28 308.578 159.204 308.41 159.052C308.25 158.892 308.17 158.688 308.17 158.44C308.17 158.192 308.25 157.992 308.41 157.84C308.578 157.68 308.782 157.6 309.022 157.6C309.27 157.6 309.474 157.68 309.634 157.84C309.794 157.992 309.874 158.192 309.874 158.44C309.874 158.688 309.794 158.892 309.634 159.052C309.474 159.204 309.27 159.28 309.022 159.28ZM314.18 166.168C313.58 166.168 313.056 166.044 312.608 165.796C312.16 165.54 311.808 165.184 311.552 164.728C311.304 164.264 311.18 163.728 311.18 163.12V162.976C311.18 162.36 311.304 161.824 311.552 161.368C311.8 160.904 312.144 160.548 312.584 160.3C313.032 160.044 313.548 159.916 314.132 159.916C314.7 159.916 315.196 160.044 315.62 160.3C316.052 160.548 316.388 160.896 316.628 161.344C316.868 161.792 316.988 162.316 316.988 162.916V163.384H312.44C312.456 163.904 312.628 164.32 312.956 164.632C313.292 164.936 313.708 165.088 314.204 165.088C314.668 165.088 315.016 164.984 315.248 164.776C315.488 164.568 315.672 164.328 315.8 164.056L316.82 164.584C316.708 164.808 316.544 165.044 316.328 165.292C316.12 165.54 315.844 165.748 315.5 165.916C315.156 166.084 314.716 166.168 314.18 166.168ZM312.452 162.436H315.728C315.696 161.988 315.536 161.64 315.248 161.392C314.96 161.136 314.584 161.008 314.12 161.008C313.656 161.008 313.276 161.136 312.98 161.392C312.692 161.64 312.516 161.988 312.452 162.436ZM320.924 166.168C320.436 166.168 319.984 166.048 319.568 165.808C319.152 165.568 318.816 165.224 318.56 164.776C318.312 164.32 318.188 163.772 318.188 163.132V162.952C318.188 162.32 318.312 161.776 318.56 161.32C318.808 160.864 319.14 160.516 319.556 160.276C319.972 160.036 320.428 159.916 320.924 159.916C321.308 159.916 321.628 159.964 321.884 160.06C322.148 160.156 322.364 160.28 322.532 160.432C322.7 160.576 322.828 160.728 322.916 160.888H323.108V157.6H324.344V166H323.132V165.16H322.94C322.788 165.416 322.556 165.648 322.244 165.856C321.94 166.064 321.5 166.168 320.924 166.168ZM321.272 165.088C321.808 165.088 322.248 164.916 322.592 164.572C322.944 164.228 323.12 163.736 323.12 163.096V162.988C323.12 162.356 322.948 161.868 322.604 161.524C322.26 161.18 321.816 161.008 321.272 161.008C320.744 161.008 320.304 161.18 319.952 161.524C319.608 161.868 319.436 162.356 319.436 162.988V163.096C319.436 163.736 319.608 164.228 319.952 164.572C320.304 164.916 320.744 165.088 321.272 165.088ZM332.306 166.168C331.282 166.168 330.47 165.88 329.87 165.304C329.27 164.72 328.97 163.88 328.97 162.784V160.816C328.97 159.72 329.27 158.884 329.87 158.308C330.47 157.724 331.282 157.432 332.306 157.432C333.314 157.432 334.09 157.712 334.634 158.272C335.186 158.832 335.462 159.596 335.462 160.564V160.636H334.178V160.528C334.178 159.96 334.022 159.496 333.71 159.136C333.406 158.776 332.938 158.596 332.306 158.596C331.666 158.596 331.166 158.792 330.806 159.184C330.446 159.568 330.266 160.104 330.266 160.792V162.808C330.266 163.488 330.446 164.024 330.806 164.416C331.166 164.808 331.666 165.004 332.306 165.004C332.938 165.004 333.406 164.824 333.71 164.464C334.022 164.096 334.178 163.632 334.178 163.072V162.868H335.462V163.036C335.462 164.004 335.186 164.768 334.634 165.328C334.09 165.888 333.314 166.168 332.306 166.168ZM338.769 166.168C338.345 166.168 337.965 166.096 337.629 165.952C337.301 165.808 337.037 165.596 336.837 165.316C336.645 165.036 336.549 164.696 336.549 164.296C336.549 163.888 336.645 163.552 336.837 163.288C337.037 163.016 337.305 162.812 337.641 162.676C337.985 162.54 338.373 162.472 338.805 162.472H340.605V162.088C340.605 161.744 340.501 161.468 340.293 161.26C340.085 161.052 339.765 160.948 339.333 160.948C338.909 160.948 338.585 161.048 338.361 161.248C338.137 161.448 337.989 161.708 337.917 162.028L336.765 161.656C336.861 161.336 337.013 161.048 337.221 160.792C337.437 160.528 337.721 160.316 338.073 160.156C338.425 159.996 338.849 159.916 339.345 159.916C340.113 159.916 340.717 160.112 341.157 160.504C341.597 160.896 341.817 161.452 341.817 162.172V164.608C341.817 164.848 341.929 164.968 342.153 164.968H342.657V166H341.733C341.453 166 341.225 165.928 341.049 165.784C340.873 165.64 340.785 165.444 340.785 165.196V165.16H340.605C340.541 165.28 340.445 165.42 340.317 165.58C340.189 165.74 340.001 165.88 339.753 166C339.505 166.112 339.177 166.168 338.769 166.168ZM338.949 165.148C339.445 165.148 339.845 165.008 340.149 164.728C340.453 164.44 340.605 164.048 340.605 163.552V163.432H338.877C338.549 163.432 338.285 163.504 338.085 163.648C337.885 163.784 337.785 163.988 337.785 164.26C337.785 164.532 337.889 164.748 338.097 164.908C338.305 165.068 338.589 165.148 338.949 165.148ZM343.859 166V160.084H345.071V160.972H345.263C345.375 160.732 345.575 160.508 345.863 160.3C346.151 160.092 346.579 159.988 347.147 159.988C347.595 159.988 347.991 160.088 348.335 160.288C348.687 160.488 348.963 160.772 349.163 161.14C349.363 161.5 349.463 161.936 349.463 162.448V166H348.227V162.544C348.227 162.032 348.099 161.656 347.843 161.416C347.587 161.168 347.235 161.044 346.787 161.044C346.275 161.044 345.863 161.212 345.551 161.548C345.247 161.884 345.095 162.372 345.095 163.012V166H343.859ZM353.69 166.168C353.202 166.168 352.75 166.048 352.334 165.808C351.918 165.568 351.582 165.224 351.326 164.776C351.078 164.32 350.954 163.772 350.954 163.132V162.952C350.954 162.32 351.078 161.776 351.326 161.32C351.574 160.864 351.906 160.516 352.322 160.276C352.738 160.036 353.194 159.916 353.69 159.916C354.074 159.916 354.394 159.964 354.65 160.06C354.914 160.156 355.13 160.28 355.298 160.432C355.466 160.576 355.594 160.728 355.682 160.888H355.874V157.6H357.11V166H355.898V165.16H355.706C355.554 165.416 355.322 165.648 355.01 165.856C354.706 166.064 354.266 166.168 353.69 166.168ZM354.038 165.088C354.574 165.088 355.014 164.916 355.358 164.572C355.71 164.228 355.886 163.736 355.886 163.096V162.988C355.886 162.356 355.714 161.868 355.37 161.524C355.026 161.18 354.582 161.008 354.038 161.008C353.51 161.008 353.07 161.18 352.718 161.524C352.374 161.868 352.202 162.356 352.202 162.988V163.096C352.202 163.736 352.374 164.228 352.718 164.572C353.07 164.916 353.51 165.088 354.038 165.088ZM358.929 166V160.084H360.165V166H358.929ZM359.553 159.28C359.313 159.28 359.109 159.204 358.941 159.052C358.781 158.892 358.701 158.688 358.701 158.44C358.701 158.192 358.781 157.992 358.941 157.84C359.109 157.68 359.313 157.6 359.553 157.6C359.801 157.6 360.005 157.68 360.165 157.84C360.325 157.992 360.405 158.192 360.405 158.44C360.405 158.688 360.325 158.892 360.165 159.052C360.005 159.204 359.801 159.28 359.553 159.28ZM363.835 166.168C363.411 166.168 363.031 166.096 362.695 165.952C362.367 165.808 362.103 165.596 361.903 165.316C361.711 165.036 361.615 164.696 361.615 164.296C361.615 163.888 361.711 163.552 361.903 163.288C362.103 163.016 362.371 162.812 362.707 162.676C363.051 162.54 363.439 162.472 363.871 162.472H365.671V162.088C365.671 161.744 365.567 161.468 365.359 161.26C365.151 161.052 364.831 160.948 364.399 160.948C363.975 160.948 363.651 161.048 363.427 161.248C363.203 161.448 363.055 161.708 362.983 162.028L361.831 161.656C361.927 161.336 362.079 161.048 362.287 160.792C362.503 160.528 362.787 160.316 363.139 160.156C363.491 159.996 363.915 159.916 364.411 159.916C365.179 159.916 365.783 160.112 366.223 160.504C366.663 160.896 366.883 161.452 366.883 162.172V164.608C366.883 164.848 366.995 164.968 367.219 164.968H367.723V166H366.799C366.519 166 366.291 165.928 366.115 165.784C365.939 165.64 365.851 165.444 365.851 165.196V165.16H365.671C365.607 165.28 365.511 165.42 365.383 165.58C365.255 165.74 365.067 165.88 364.819 166C364.571 166.112 364.243 166.168 363.835 166.168ZM364.015 165.148C364.511 165.148 364.911 165.008 365.215 164.728C365.519 164.44 365.671 164.048 365.671 163.552V163.432H363.943C363.615 163.432 363.351 163.504 363.151 163.648C362.951 163.784 362.851 163.988 362.851 164.26C362.851 164.532 362.955 164.748 363.163 164.908C363.371 165.068 363.655 165.148 364.015 165.148ZM370.735 166C370.375 166 370.087 165.892 369.871 165.676C369.663 165.46 369.559 165.172 369.559 164.812V161.128H367.927V160.084H369.559V158.128H370.795V160.084H372.559V161.128H370.795V164.596C370.795 164.836 370.907 164.956 371.131 164.956H372.367V166H370.735ZM376.512 166.168C375.912 166.168 375.388 166.044 374.94 165.796C374.492 165.54 374.14 165.184 373.884 164.728C373.636 164.264 373.512 163.728 373.512 163.12V162.976C373.512 162.36 373.636 161.824 373.884 161.368C374.132 160.904 374.476 160.548 374.916 160.3C375.364 160.044 375.88 159.916 376.464 159.916C377.032 159.916 377.528 160.044 377.952 160.3C378.384 160.548 378.72 160.896 378.96 161.344C379.2 161.792 379.32 162.316 379.32 162.916V163.384H374.772C374.788 163.904 374.96 164.32 375.288 164.632C375.624 164.936 376.04 165.088 376.536 165.088C377 165.088 377.348 164.984 377.58 164.776C377.82 164.568 378.004 164.328 378.132 164.056L379.152 164.584C379.04 164.808 378.876 165.044 378.66 165.292C378.452 165.54 378.176 165.748 377.832 165.916C377.488 166.084 377.048 166.168 376.512 166.168ZM374.784 162.436H378.06C378.028 161.988 377.868 161.64 377.58 161.392C377.292 161.136 376.916 161.008 376.452 161.008C375.988 161.008 375.608 161.136 375.312 161.392C375.024 161.64 374.848 161.988 374.784 162.436ZM383.232 166.168C382.48 166.168 381.856 166 381.36 165.664C380.864 165.328 380.56 164.82 380.448 164.14L381.6 163.864C381.664 164.192 381.772 164.452 381.924 164.644C382.076 164.836 382.264 164.972 382.488 165.052C382.72 165.132 382.968 165.172 383.232 165.172C383.624 165.172 383.924 165.096 384.132 164.944C384.348 164.792 384.456 164.596 384.456 164.356C384.456 164.116 384.356 163.94 384.156 163.828C383.956 163.716 383.66 163.624 383.268 163.552L382.86 163.48C382.46 163.408 382.096 163.304 381.768 163.168C381.44 163.032 381.18 162.844 380.988 162.604C380.796 162.364 380.7 162.056 380.7 161.68C380.7 161.12 380.908 160.688 381.324 160.384C381.74 160.072 382.292 159.916 382.98 159.916C383.644 159.916 384.188 160.068 384.612 160.372C385.044 160.668 385.324 161.072 385.452 161.584L384.3 161.908C384.228 161.548 384.076 161.296 383.844 161.152C383.612 161 383.324 160.924 382.98 160.924C382.644 160.924 382.38 160.988 382.188 161.116C381.996 161.236 381.9 161.408 381.9 161.632C381.9 161.872 381.992 162.048 382.176 162.16C382.368 162.272 382.624 162.356 382.944 162.412L383.364 162.484C383.788 162.556 384.176 162.656 384.528 162.784C384.88 162.912 385.156 163.096 385.356 163.336C385.564 163.576 385.668 163.896 385.668 164.296C385.668 164.888 385.448 165.348 385.008 165.676C384.568 166.004 383.976 166.168 383.232 166.168Z" fill="#5C5C5C"/>
<path d="M316.994 145.294C315.86 145.294 314.866 145.126 314.012 144.79C313.172 144.454 312.514 143.971 312.038 143.341C311.576 142.697 311.345 141.948 311.345 141.094V140.863C311.345 140.163 311.478 139.589 311.744 139.141C312.024 138.679 312.36 138.322 312.752 138.07C313.158 137.804 313.536 137.629 313.886 137.545V137.209C313.536 137.111 313.179 136.936 312.815 136.684C312.451 136.418 312.15 136.075 311.912 135.655C311.688 135.221 311.576 134.703 311.576 134.101V133.87C311.576 133.086 311.8 132.407 312.248 131.833C312.71 131.259 313.347 130.811 314.159 130.489C314.971 130.167 315.916 130.006 316.994 130.006C318.058 130.006 318.996 130.167 319.808 130.489C320.62 130.811 321.25 131.259 321.698 131.833C322.16 132.407 322.391 133.086 322.391 133.87V134.101C322.391 134.703 322.272 135.221 322.034 135.655C321.81 136.075 321.523 136.418 321.173 136.684C320.823 136.936 320.466 137.111 320.102 137.209V137.545C320.466 137.629 320.844 137.804 321.236 138.07C321.628 138.322 321.957 138.679 322.223 139.141C322.489 139.589 322.622 140.163 322.622 140.863V141.094C322.622 141.948 322.384 142.697 321.908 143.341C321.446 143.971 320.788 144.454 319.934 144.79C319.094 145.126 318.114 145.294 316.994 145.294ZM316.994 143.32C318.058 143.32 318.891 143.117 319.493 142.711C320.109 142.291 320.417 141.71 320.417 140.968V140.8C320.417 140.044 320.116 139.463 319.514 139.057C318.926 138.637 318.086 138.427 316.994 138.427C315.902 138.427 315.055 138.637 314.453 139.057C313.851 139.463 313.55 140.044 313.55 140.8V140.968C313.55 141.71 313.851 142.291 314.453 142.711C315.069 143.117 315.916 143.32 316.994 143.32ZM316.994 136.453C317.988 136.453 318.765 136.264 319.325 135.886C319.899 135.508 320.186 134.976 320.186 134.29V134.122C320.186 133.436 319.899 132.911 319.325 132.547C318.751 132.169 317.974 131.98 316.994 131.98C316 131.98 315.216 132.169 314.642 132.547C314.068 132.911 313.781 133.436 313.781 134.122V134.29C313.781 134.976 314.061 135.508 314.621 135.886C315.195 136.264 315.986 136.453 316.994 136.453ZM329.748 145.294C328.642 145.294 327.683 145.091 326.871 144.685C326.059 144.279 325.429 143.705 324.981 142.963C324.547 142.221 324.33 141.36 324.33 140.38V140.149H326.577V140.359C326.577 141.255 326.85 141.976 327.396 142.522C327.956 143.054 328.733 143.32 329.727 143.32C330.749 143.32 331.54 143.04 332.1 142.48C332.66 141.92 332.94 141.164 332.94 140.212V140.023C332.94 139.113 332.66 138.385 332.1 137.839C331.554 137.293 330.854 137.02 330 137.02C329.524 137.02 329.125 137.097 328.803 137.251C328.495 137.391 328.243 137.566 328.047 137.776C327.865 137.986 327.711 138.189 327.585 138.385H324.792V130.3H334.641V132.295H326.997V136.621H327.333C327.473 136.383 327.669 136.159 327.921 135.949C328.187 135.725 328.53 135.543 328.95 135.403C329.37 135.263 329.874 135.193 330.462 135.193C331.33 135.193 332.114 135.382 332.814 135.76C333.528 136.124 334.095 136.67 334.515 137.398C334.935 138.112 335.145 138.98 335.145 140.002V140.233C335.145 141.255 334.928 142.144 334.494 142.9C334.06 143.656 333.437 144.244 332.625 144.664C331.827 145.084 330.868 145.294 329.748 145.294ZM342.739 145.294C341.031 145.294 339.666 144.811 338.644 143.845C337.636 142.865 337.132 141.395 337.132 139.435V135.865C337.132 133.947 337.636 132.491 338.644 131.497C339.666 130.503 341.031 130.006 342.739 130.006C344.461 130.006 345.826 130.503 346.834 131.497C347.856 132.491 348.367 133.947 348.367 135.865V139.435C348.367 141.395 347.856 142.865 346.834 143.845C345.826 144.811 344.461 145.294 342.739 145.294ZM342.739 143.32C343.901 143.32 344.762 142.991 345.322 142.333C345.882 141.661 346.162 140.723 346.162 139.519V135.739C346.162 134.535 345.861 133.611 345.259 132.967C344.657 132.309 343.817 131.98 342.739 131.98C341.647 131.98 340.807 132.316 340.219 132.988C339.631 133.646 339.337 134.563 339.337 135.739V139.519C339.337 140.751 339.617 141.696 340.177 142.354C340.751 142.998 341.605 143.32 342.739 143.32Z" fill="#5C5C5C"/>
<path d="M111.696 14.8538C74.9013 -8.19935 26.2056 26.5029 6.45703 46.7357V117.244H800.816V106.821C797.178 107.23 781.016 107.802 745.468 106.821C701.034 105.595 672.191 90.8799 641.009 79.2308C609.827 67.5816 564.613 57.1586 532.652 55.9324C500.69 54.7062 483.54 46.7357 440.665 42.4439C430.624 41.4387 414.497 91.9295 396.131 97.9998C342.335 89.9998 297.38 90.621 264.087 89.9998C262.615 89.9723 261.188 35.7241 259.81 35.6996C225.77 38.3565 148.491 37.9069 111.696 14.8538Z" fill="#793EF5"/>
</g>
</svg>
