<svg width="190" height="60" viewBox="0 0 190 60" fill="none" xmlns="http://www.w3.org/2000/svg">
<rect x="75" width="40" height="24" rx="4" fill="#793EF5"/>
<path d="M87.8214 16V8.608H87.6174L86.3574 11.356H84.8814L86.6694 7.6H89.2134V16H87.8214ZM90.5974 16V15.028C90.5974 14.436 90.6934 13.952 90.8854 13.576C91.0854 13.192 91.3694 12.88 91.7374 12.64C92.1054 12.392 92.5534 12.188 93.0814 12.028L93.8494 11.788C94.1614 11.684 94.4254 11.56 94.6414 11.416C94.8574 11.272 95.0254 11.096 95.1454 10.888C95.2654 10.672 95.3254 10.42 95.3254 10.132V10.084C95.3254 9.652 95.1774 9.312 94.8814 9.064C94.5854 8.808 94.1894 8.68 93.6934 8.68C93.1974 8.68 92.7934 8.816 92.4814 9.088C92.1694 9.352 92.0134 9.744 92.0134 10.264V10.468H90.6214V10.288C90.6214 9.68 90.7574 9.164 91.0294 8.74C91.3014 8.316 91.6694 7.992 92.1334 7.768C92.5974 7.544 93.1174 7.432 93.6934 7.432C94.2694 7.432 94.7854 7.544 95.2414 7.768C95.7054 7.984 96.0654 8.288 96.3214 8.68C96.5854 9.072 96.7174 9.532 96.7174 10.06V10.18C96.7174 10.716 96.6094 11.168 96.3934 11.536C96.1774 11.904 95.8774 12.208 95.4934 12.448C95.1174 12.68 94.6894 12.872 94.2094 13.024L93.4654 13.252C93.1054 13.364 92.8174 13.484 92.6014 13.612C92.3934 13.74 92.2454 13.888 92.1574 14.056C92.0694 14.216 92.0254 14.42 92.0254 14.668V14.752H96.6454V16H90.5974ZM101.082 16.168C100.098 16.168 99.3098 15.892 98.7178 15.34C98.1258 14.788 97.8298 13.956 97.8298 12.844V10.756C97.8298 9.668 98.1258 8.844 98.7178 8.284C99.3098 7.716 100.098 7.432 101.082 7.432C102.074 7.432 102.862 7.716 103.446 8.284C104.038 8.844 104.334 9.668 104.334 10.756V12.844C104.334 13.956 104.038 14.788 103.446 15.34C102.862 15.892 102.074 16.168 101.082 16.168ZM101.082 14.92C101.714 14.92 102.178 14.744 102.474 14.392C102.778 14.04 102.93 13.54 102.93 12.892V10.696C102.93 10.04 102.766 9.54 102.438 9.196C102.11 8.852 101.658 8.68 101.082 8.68C100.49 8.68 100.034 8.856 99.7138 9.208C99.3938 9.56 99.2338 10.056 99.2338 10.696V12.892C99.2338 13.556 99.3858 14.06 99.6898 14.404C100.002 14.748 100.466 14.92 101.082 14.92Z" fill="white"/>
<path d="M0 49C0 47.3431 1.34315 46 3 46C4.65685 46 6 47.3431 6 49V60H0V49Z" fill="#C4C4C4"/>
<path d="M9.68457 45.3999C9.68457 43.743 11.0277 42.3999 12.6846 42.3999C14.3414 42.3999 15.6846 43.743 15.6846 45.3999V59.9999H9.68457V45.3999Z" fill="#C4C4C4"/>
<path d="M19.3682 43C19.3682 41.3431 20.7113 40 22.3682 40C24.025 40 25.3682 41.3431 25.3682 43V60H19.3682V43Z" fill="#C4C4C4"/>
<path d="M29.0527 45.3999C29.0527 43.743 30.3959 42.3999 32.0527 42.3999C33.7096 42.3999 35.0527 43.743 35.0527 45.3999V59.9999H29.0527V45.3999Z" fill="#C4C4C4"/>
<path d="M38.7373 45.3999C38.7373 43.743 40.0805 42.3999 41.7373 42.3999C43.3942 42.3999 44.7373 43.743 44.7373 45.3999V59.9999H38.7373V45.3999Z" fill="#C4C4C4"/>
<path d="M48.4209 49C48.4209 47.3431 49.764 46 51.4209 46C53.0778 46 54.4209 47.3431 54.4209 49V60H48.4209V49Z" fill="#C4C4C4"/>
<path d="M58.1055 44.2002C58.1055 42.5433 59.4486 41.2002 61.1055 41.2002C62.7623 41.2002 64.1055 42.5433 64.1055 44.2002V60.0002H58.1055V44.2002Z" fill="#C4C4C4"/>
<path d="M67.7891 40.6001C67.7891 38.9432 69.1322 37.6001 70.7891 37.6001C72.4459 37.6001 73.7891 38.9432 73.7891 40.6001V60.0001H67.7891V40.6001Z" fill="#C4C4C4"/>
<path d="M77.4736 39C77.4736 37.3431 78.8168 36 80.4736 36C82.1305 36 83.4736 37.3431 83.4736 39V60H77.4736V39Z" fill="#C4C4C4"/>
<path d="M87.1582 35.3999C87.1582 33.743 88.5013 32.3999 90.1582 32.3999C91.8151 32.3999 93.1582 33.743 93.1582 35.3999V59.9999H87.1582V35.3999Z" fill="#793EF5"/>
<path d="M96.8418 39C96.8418 37.3431 98.1849 36 99.8418 36C101.499 36 102.842 37.3431 102.842 39V60H96.8418V39Z" fill="#C4C4C4"/>
<path d="M106.526 40.6001C106.526 38.9432 107.87 37.6001 109.526 37.6001C111.183 37.6001 112.526 38.9432 112.526 40.6001V60.0001H106.526V40.6001Z" fill="#C4C4C4"/>
<path d="M116.211 31C116.211 29.3431 117.554 28 119.211 28C120.868 28 122.211 29.3431 122.211 31V60H116.211V31Z" fill="#C4C4C4"/>
<path d="M125.895 35.3999C125.895 33.743 127.238 32.3999 128.895 32.3999C130.551 32.3999 131.895 33.743 131.895 35.3999V59.9999H125.895V35.3999Z" fill="#C4C4C4"/>
<path d="M135.579 40.6001C135.579 38.9432 136.922 37.6001 138.579 37.6001C140.236 37.6001 141.579 38.9432 141.579 40.6001V60.0001H135.579V40.6001Z" fill="#C4C4C4"/>
<path d="M145.263 45.3999C145.263 43.743 146.606 42.3999 148.263 42.3999C149.92 42.3999 151.263 43.743 151.263 45.3999V59.9999H145.263V45.3999Z" fill="#C4C4C4"/>
<path d="M154.947 43C154.947 41.3431 156.29 40 157.947 40C159.604 40 160.947 41.3431 160.947 43V60H154.947V43Z" fill="#C4C4C4"/>
<path d="M164.632 49C164.632 47.3431 165.975 46 167.632 46C169.289 46 170.632 47.3431 170.632 49V60H164.632V49Z" fill="#C4C4C4"/>
<path d="M174.315 52.2002C174.315 50.5433 175.659 49.2002 177.315 49.2002C178.972 49.2002 180.315 50.5433 180.315 52.2002V60.0002H174.315V52.2002Z" fill="#C4C4C4"/>
<path d="M184 56.2002C184 54.5433 185.343 53.2002 187 53.2002C188.657 53.2002 190 54.5433 190 56.2002V60.0002H184V56.2002Z" fill="#C4C4C4"/>
</svg>
